<?xml version="1.0" standalone="no"?>
<!DOCTYPE svg PUBLIC "-//W3C//DTD SVG 1.1//EN" "http://www.w3.org/Graphics/SVG/1.1/DTD/svg11.dtd" >
<svg xmlns="http://www.w3.org/2000/svg">
<metadata></metadata>
<defs>
<font id="twentytwelve_twentytwelveslab" horiz-adv-x="1542" >
<font-face units-per-em="2048" ascent="1577" descent="-471" />
<missing-glyph horiz-adv-x="369" />
<glyph horiz-adv-x="0" />
<glyph unicode="&#xd;" horiz-adv-x="0" />
<glyph horiz-adv-x="0" />
<glyph horiz-adv-x="0" />
<glyph unicode=" "  horiz-adv-x="369" />
<glyph unicode="&#x09;" horiz-adv-x="369" />
<glyph unicode="&#xa0;" horiz-adv-x="369" />
<glyph unicode="!" horiz-adv-x="682" d="M211 121q0 26 10.5 49.5t28 41t41.5 28t51 10.5q26 0 49.5 -10.5t41 -28t28 -41t10.5 -49.5q0 -27 -10.5 -51t-28 -42.5t-41 -29t-49.5 -10.5q-27 0 -51 10.5t-41.5 29t-28 42.5t-10.5 51zM211 1577h260l-41 -1167h-178z" />
<glyph unicode="&#x22;" horiz-adv-x="651" d="M91 1577h246l-18 -518h-187zM395 1577h240l-47 -518h-179z" />
<glyph unicode="#" horiz-adv-x="1423" d="M20 389l41 195h239l82 415h-253l41 199h252l63 318h191l-62 -318h351l63 318h191l-62 -318h225l-39 -199h-225l-81 -415h239l-37 -195h-240l-75 -389h-193l76 389h-351l-75 -389h-197l77 389h-241zM494 584h351l81 415h-351z" />
<glyph unicode="$" horiz-adv-x="1210" d="M150 303v172h252v-11q1 0 1 0.5t1 0.5q0 -81 55.5 -123.5t165.5 -42.5q99 0 158 39t59 111q0 37 -19.5 62t-49 41.5t-65.5 26.5t-69 19q-45 12 -88 23.5t-88 23.5q-57 15 -105 39.5t-82.5 60.5t-53.5 85t-19 114q0 58 21 107.5t61 87.5t98.5 63t132.5 36v342h197v-343 q85 -15 147 -54t100 -93h101v-172h-208q-6 -1 -11.5 -1.5t-11.5 -1.5v3h-2v22q-10 65 -65.5 105t-145.5 40q-109 0 -166.5 -35.5t-57.5 -97.5q0 -42 18.5 -67.5t46.5 -40.5t61.5 -23.5t64.5 -17.5q102 -32 186.5 -58.5t144.5 -62.5t93 -88.5t33 -134.5q0 -62 -24 -116 t-67 -96t-103.5 -70.5t-133.5 -40.5v-322h-197v322q-50 8 -88.5 24t-68 37.5t-52 48.5t-38.5 57h-119z" />
<glyph unicode="%" horiz-adv-x="1794" d="M193 1167q0 67 25 127.5t70.5 106t108.5 72t138 26.5t138 -26.5t108 -72t70.5 -106t25.5 -127.5q0 -68 -24.5 -128t-69.5 -106t-108 -72.5t-140 -26.5q-78 0 -141 26.5t-107.5 72.5t-69 106t-24.5 128zM330 -16l1040 1556h195l-1041 -1556h-194zM362 1167 q0 -35 13.5 -66.5t37 -55t55 -37t67.5 -13.5q35 0 66 13.5t54 36.5t36.5 54.5t13.5 67.5t-13.5 67t-36.5 53.5t-54 35t-66 12.5q-36 0 -67.5 -12.5t-55 -35t-37 -53.5t-13.5 -67zM1059 379q0 67 25 127t70.5 105.5t108.5 72.5t138 27t138 -27t108.5 -72.5t70.5 -105.5 t25 -127q0 -68 -24.5 -128.5t-69 -106t-107.5 -72.5t-141 -27t-141 27t-107.5 72.5t-69 106t-24.5 128.5zM1229 379q0 -35 13.5 -66.5t37 -55t55 -37t66.5 -13.5t66 13.5t54 36.5t36.5 54.5t13.5 67.5t-13.5 66.5t-36.5 53t-54 35.5t-66 13t-66.5 -13t-55 -35.5t-37 -53 t-13.5 -66.5z" />
<glyph unicode="&#x26;" horiz-adv-x="1321" d="M143 426q0 68 22 130.5t60.5 114.5t89.5 92.5t109 65.5q-30 29 -65.5 64.5t-65.5 77.5t-50 91t-20 105q0 80 31 149t84.5 120t125.5 80.5t154 29.5q87 0 161.5 -31t128.5 -83t85 -121t31 -144q0 -82 -25 -142t-67 -105.5t-98 -80t-118 -64.5l306 -285q32 73 51.5 144.5 t30.5 129.5h188q-17 -94 -52 -195t-89 -198l138 -128l138 -128q-35 -30 -69.5 -60.5t-69.5 -60.5q-60 57 -118 114t-118 114q-42 -52 -91 -95t-104.5 -74.5t-118 -49t-132.5 -17.5q-97 0 -181.5 34t-147 93t-98.5 139.5t-36 173.5zM322 430q0 -58 22.5 -107.5t62 -85.5 t93 -56.5t114.5 -20.5q52 0 98 13t86 36.5t73.5 56t62.5 70.5q-96 92 -190 183.5t-190 183.5q-20 -9 -40.5 -19t-40.5 -18q-34 -14 -61.5 -38.5t-47.5 -56t-31 -68t-11 -73.5zM397 1169q0 -42 20.5 -88.5t74.5 -97.5q23 -21 44.5 -41.5t44.5 -41.5q59 26 111.5 55.5 t91.5 70.5q27 27 44.5 64t17.5 77q0 42 -18.5 81t-49.5 69t-72.5 47.5t-87.5 17.5q-50 0 -90.5 -16.5t-69.5 -45.5t-45 -67.5t-16 -83.5z" />
<glyph unicode="'" horiz-adv-x="340" d="M67 1059v518l257 16l-68 -534h-189z" />
<glyph unicode="(" horiz-adv-x="721" d="M141 590q0 142 27 280.5t77.5 269.5t122.5 254.5t162 235.5l138 -110q-79 -100 -140.5 -211t-103.5 -229t-64 -241.5t-22 -248.5t22 -248.5t64 -242t103.5 -229t140.5 -210.5l-138 -111q-90 112 -162 235.5t-122.5 255t-77.5 270t-27 280.5z" />
<glyph unicode=")" horiz-adv-x="721" d="M53 -340q79 100 140.5 210.5t103.5 229t64 242t22 248.5t-22 248.5t-64 241.5t-103.5 229t-140.5 211l137 110q90 -112 162 -235.5t123 -254.5t78 -269.5t27 -280.5t-27 -280.5t-78 -270t-123 -255t-162 -235.5z" />
<glyph unicode="*" horiz-adv-x="836" d="M59 1257l39 125l252 -82v246h133v-251l248 81l37 -119l-249 -80l157 -214l-109 -72l-149 206l-148 -204l-108 70l155 212z" />
<glyph unicode="+" horiz-adv-x="1311" d="M143 608v183h420v419h182v-419h422v-183h-422v-422h-182v422h-420z" />
<glyph unicode="," horiz-adv-x="569" d="M20 -287l185 570l199 -76l-260 -537z" />
<glyph unicode="-" horiz-adv-x="737" d="M94 496v172h551v-172h-551z" />
<glyph unicode="." horiz-adv-x="524" d="M98 123q0 26 10.5 49.5t28 41t41.5 28t51 10.5q26 0 49.5 -10.5t41 -28t28 -41t10.5 -49.5q0 -27 -10.5 -51t-28 -42.5t-41 -29t-49.5 -10.5q-27 0 -51 10.5t-41.5 29t-28 42.5t-10.5 51z" />
<glyph unicode="/" horiz-adv-x="848" d="M49 0l588 1556h174l-588 -1556h-174z" />
<glyph unicode="0" horiz-adv-x="1221" d="M88 756q0 103 11.5 201.5t38 185.5t69.5 160t106 125.5t148 82t196 29.5t196.5 -29.5t149 -82t106.5 -125.5t69 -159.5t37.5 -183.5t11.5 -198q0 -163 -28 -305t-94.5 -247.5t-176.5 -166.5t-273 -61q-162 0 -271 60t-174.5 165t-93.5 246t-28 303zM293 762 q0 -124 12.5 -233.5t51 -191.5t110 -129.5t188.5 -47.5q79 0 137 21.5t99 61t67 94.5t40.5 122t20 143.5t5.5 159.5q0 119 -14 228.5t-54 193.5t-112 134t-187 50q-78 0 -135.5 -23t-98 -64t-66 -97.5t-40 -123.5t-19.5 -143t-5 -155z" />
<glyph unicode="1" horiz-adv-x="858" d="M82 1114v209l422 236h80v-1387h150v-172h-492v172h147v1109z" />
<glyph unicode="2" horiz-adv-x="1100" d="M86 1104q1 95 37 175.5t96.5 139t140.5 91t168 32.5q102 0 185 -32.5t142 -89.5t91.5 -135t32.5 -169q0 -36 -8.5 -77t-28.5 -87.5t-54 -99.5t-85 -113l-473 -563h647v-176h-889v147l533 644q27 32 56.5 69t55 78t42 85.5t16.5 92.5q0 50 -20 94t-55 77t-83.5 52 t-106.5 19q-52 0 -98.5 -16.5t-81.5 -48.5t-56.5 -79.5t-23.5 -109.5h-180z" />
<glyph unicode="3" horiz-adv-x="1110" d="M41 365h192q29 -93 103.5 -146t189.5 -53q52 0 101.5 21t87.5 58.5t61 88t23 110.5q0 63 -23 114t-62 86.5t-90.5 55t-109.5 19.5h-86v151h70q66 0 118.5 19.5t88.5 53.5t55.5 79.5t19.5 97.5q0 39 -16.5 83.5t-51 82t-87 62t-123.5 24.5q-58 0 -105 -22t-80.5 -51.5 t-52 -60t-18.5 -48.5v-39l-193 2q9 81 48 152.5t99 125t137 84.5t163 31q107 0 194 -35.5t148.5 -94t95 -133.5t33.5 -153q0 -48 -12 -96t-37.5 -91.5t-65.5 -80.5t-97 -65q47 -18 88.5 -50.5t72.5 -77.5t49 -102t18 -125q0 -98 -38 -181.5t-103 -144.5t-152.5 -95.5 t-187.5 -34.5q-70 0 -134.5 17t-120 50t-99.5 82.5t-74 114.5q-12 26 -21.5 55t-15.5 60z" />
<glyph unicode="4" horiz-adv-x="1251" d="M90 438l2 158l539 920h213l-513 -906h388v250l196 14v-264h226v-172h-226v-266h150v-172h-492v172h146v266h-629z" />
<glyph unicode="5" horiz-adv-x="1139" d="M74 291l164 82q16 -51 47 -94.5t73 -75t93 -49t108 -17.5q72 0 133.5 26.5t107 72.5t71.5 107.5t26 131.5q0 71 -26 131.5t-72 105t-107.5 70t-132.5 25.5q-80 0 -147.5 -28.5t-112.5 -76.5l-147 23v791h854v-166h-689v-454q56 38 115 57.5t135 19.5q112 0 206 -40 t161.5 -108t105 -158.5t37.5 -191.5q0 -102 -37 -193.5t-105 -160.5t-163.5 -109.5t-212.5 -40.5q-89 0 -166 23.5t-139 66t-107.5 101.5t-72.5 129z" />
<glyph unicode="6" horiz-adv-x="1249" d="M94 496q0 88 33 174.5t84 179.5l369 668h233l-338 -561q61 26 110.5 30t88.5 4q92 0 178 -34.5t152.5 -97t106.5 -149t40 -190.5q0 -127 -43 -226t-116 -167t-169.5 -103.5t-204.5 -35.5q-102 0 -196.5 37t-167.5 103.5t-116.5 160t-43.5 207.5zM281 494q0 -78 26 -140 t72 -104.5t108.5 -65t135.5 -22.5q68 0 130 24t109 68t75 105t28 135q0 82 -30 144.5t-80.5 104.5t-117.5 63t-141 21q-97 0 -169.5 -44t-119.5 -125q-26 -73 -26 -164z" />
<glyph unicode="7" horiz-adv-x="1077" d="M41 1206v310h995v-150q-66 -130 -138 -275.5t-142.5 -298.5t-136.5 -310t-120 -310h126v-172h-443v172h117q54 154 119 312.5t132 308.5t132 285.5t119 244.5h-568v-117h-192z" />
<glyph unicode="8" horiz-adv-x="1276" d="M139 442q0 61 16.5 118.5t47 107t73 91t94.5 71.5q-76 55 -120.5 137.5t-44.5 179.5q0 82 33 154.5t90.5 126.5t135.5 85t167 31q86 0 162.5 -31t134.5 -85t91.5 -126.5t33.5 -154.5q0 -98 -46 -181t-123 -137q51 -30 93 -71.5t72 -91t46.5 -106.5t16.5 -118 q0 -95 -38.5 -178t-104.5 -145.5t-154 -98.5t-188 -36q-101 0 -190 36t-155 98.5t-104.5 145.5t-38.5 178zM322 446q0 -59 24 -111.5t65.5 -91.5t97 -62t118.5 -23q62 0 117 23t96.5 62t65.5 91.5t24 111.5q0 58 -24 110t-65.5 91t-96.5 61.5t-117 22.5q-63 0 -118.5 -22.5 t-97 -61.5t-65.5 -91t-24 -110zM377 1143q0 -50 19 -93.5t53 -76t80.5 -51.5t101.5 -19q51 0 96 19t79.5 51.5t54.5 76t20 93.5q0 49 -20 92.5t-54.5 76t-79.5 51.5t-96 19q-55 0 -101.5 -19t-80.5 -51.5t-53 -76t-19 -92.5z" />
<glyph unicode="9" horiz-adv-x="1270" d="M94 995q0 127 43 226t116 167t169.5 104t204.5 36q102 0 196.5 -37t167.5 -103.5t116.5 -160t43.5 -207.5q0 -89 -33 -175t-84 -179l-368 -668h-234l338 560q-62 -27 -111 -30.5t-88 -3.5q-92 0 -178 35t-152.5 97t-106.5 148.5t-40 190.5zM281 1022q0 -82 30 -144.5 t80.5 -104.5t117 -63.5t140.5 -21.5q97 0 168.5 43.5t119.5 122.5q13 37 20.5 78.5t7.5 89.5q0 78 -26 140t-72 104.5t-108.5 65t-135.5 22.5q-69 0 -131 -24t-109 -68t-74.5 -105t-27.5 -135z" />
<glyph unicode=":" horiz-adv-x="524" d="M98 123q0 26 10.5 49.5t28 41t41.5 28t51 10.5q26 0 49.5 -10.5t41 -28t28 -41t10.5 -49.5q0 -27 -10.5 -51t-28 -42.5t-41 -29t-49.5 -10.5q-27 0 -51 10.5t-41.5 29t-28 42.5t-10.5 51zM98 909q0 26 10.5 49.5t28 41t41.5 28t51 10.5q26 0 49.5 -10.5t41 -28t28 -41 t10.5 -49.5q0 -27 -10.5 -51t-28 -42.5t-41 -29t-49.5 -10.5q-27 0 -51 10.5t-41.5 29t-28 42.5t-10.5 51z" />
<glyph unicode=";" horiz-adv-x="524" d="M-19 -287l185 570l199 -76l-260 -537zM98 909q0 26 10.5 49.5t28 41t41.5 28t51 10.5q26 0 49.5 -10.5t41 -28t28 -41t10.5 -49.5q0 -27 -10.5 -51t-28 -42.5t-41 -29t-49.5 -10.5q-27 0 -51 10.5t-41.5 29t-28 42.5t-10.5 51z" />
<glyph unicode="&#x3c;" horiz-adv-x="834" d="M10 502v112l791 306v-144l-620 -216l620 -228v-142z" />
<glyph unicode="=" horiz-adv-x="922" d="M86 305v141h750v-141h-750zM86 643v141h750v-141h-750z" />
<glyph unicode="&#x3e;" horiz-adv-x="854" d="M53 190v142l620 223l-620 221v144l791 -312v-112z" />
<glyph unicode="?" horiz-adv-x="1065" d="M121 1157q5 84 40.5 159t95.5 131.5t142 90t181 33.5q100 0 177.5 -33t130.5 -88t80 -127.5t27 -151.5q0 -102 -52 -188t-155 -158q-47 -33 -82 -61t-60.5 -57t-41.5 -62t-25.5 -76.5t-13.5 -100t-4 -132.5h-180q0 104 7.5 181.5t28.5 138t58 110.5t96 100q53 45 96.5 78 t74.5 64.5t48 68t17 88.5q0 45 -18 87t-48.5 74.5t-72 52.5t-88.5 20q-81 0 -135 -28t-87 -67.5t-47 -83.5t-14 -75zM338 121q0 26 10.5 49.5t28 41t41.5 28t51 10.5q26 0 49.5 -10.5t41 -28t28 -41t10.5 -49.5q0 -27 -10.5 -51t-28 -42.5t-41 -29t-49.5 -10.5 q-27 0 -51 10.5t-41.5 29t-28 42.5t-10.5 51z" />
<glyph unicode="@" horiz-adv-x="2310" d="M145 494q0 137 35.5 264.5t100.5 238.5t156.5 202t202.5 156t239 100.5t266 35.5q140 0 268.5 -34.5t239.5 -96.5t202 -149t155.5 -192t100 -224.5t35.5 -247.5q0 -68 -13 -137t-39 -132t-63.5 -118t-87 -95.5t-109.5 -64t-130 -23.5q-92 0 -154 40t-97 103 q-63 -52 -142 -81t-170 -29q-105 0 -192.5 36.5t-151.5 100.5t-99.5 149t-35.5 183q0 97 37 182.5t101.5 149.5t152 101.5t188.5 37.5q73 0 140 -20t124 -57v83h184v-663q0 -31 6 -58.5t20 -48.5t35.5 -33t53.5 -12q51 0 90 19t68 50.5t48 73.5t30.5 87t16.5 90.5t5 85.5 q0 102 -29 197.5t-81.5 180t-126.5 155t-165 121t-196 78.5t-219 28q-113 0 -217.5 -29t-195 -82t-165 -127t-127 -164.5t-81.5 -194.5t-29 -216q0 -113 29 -217.5t81.5 -195.5t127 -165t165 -127t195 -82t217.5 -29q115 0 222 30.5t200 86.5l94 -157 q-113 -69 -243.5 -106.5t-272.5 -37.5q-138 0 -266 35.5t-239 100.5t-202.5 156.5t-156.5 202.5t-100.5 239t-35.5 266zM846 479q0 -59 21 -110.5t59.5 -90t93 -61t121.5 -22.5q94 0 162 43.5t102 112.5v253q-17 35 -43.5 65t-60.5 51.5t-74.5 33.5t-85.5 12q-64 0 -118 -23 t-93.5 -62t-61.5 -91.5t-22 -110.5z" />
<glyph unicode="A" d="M10 0v172h131l473 1344h295l471 -1344h152v-172h-492v172h126l-120 344h-583l-118 -344h157v-172h-492zM519 682h469l-237 698z" />
<glyph unicode="B" horiz-adv-x="1323" d="M93 1343v175q160 -1 318.5 -1.5t318.5 -0.5q96 0 181 -25t148.5 -76t100.5 -128t37 -181q0 -103 -50.5 -188.5t-136.5 -139.5l22 -10q44 -23 83 -56t68.5 -74t46.5 -88t17 -99q0 -93 -34 -175t-93.5 -143.5t-140 -97t-174.5 -35.5h-708v172h164v1171h-168zM455 172h352 q51 0 93 25.5t71.5 65t46 88t16.5 95.5q0 45 -18.5 86t-50 72.5t-72.5 50.5t-86 19h-352v-502zM458 866h272q57 0 104.5 15.5t82 45.5t54 75t19.5 104q0 67 -22 112t-60 73t-90 40t-112 12h-248v-477z" />
<glyph unicode="C" horiz-adv-x="1503" d="M46 760q0 106 25 205.5t71 187t111.5 159.5t147 123.5t176.5 80t201 28.5q95 0 178.5 -21t153.5 -55.5t125 -79.5t93 -94h104v-178h-220q-66 114 -172.5 178t-261.5 64q-116 0 -213 -48.5t-167.5 -131t-110 -190.5t-39.5 -228t39.5 -228t110 -190t168 -130t212.5 -48 q151 0 256.5 62t180.5 188l223 -2q-46 -98 -111 -178t-148 -138t-183.5 -89.5t-217.5 -31.5q-160 0 -294 63t-231.5 170.5t-152 250t-54.5 301.5z" />
<glyph unicode="D" horiz-adv-x="1520" d="M143 0v172h156v1171h-156v173h576q104 0 198 -27t175 -76t147 -117.5t112.5 -152.5t71.5 -180.5t25 -200.5q0 -173 -55.5 -313.5t-153.5 -240t-231 -154t-289 -54.5h-576zM496 172h235q105 0 197.5 40.5t161.5 116.5t109 185.5t40 247.5q0 122 -40 228t-109 184.5 t-161.5 123.5t-197.5 45h-235v-1171z" />
<glyph unicode="E" horiz-adv-x="1286" d="M143 0v172h144v1171h-144v173h1085v-429h-204v256h-540v-485h454v-172h-454v-514h540v256h204v-428h-1085z" />
<glyph unicode="F" horiz-adv-x="1247" d="M143 0v172h140v1171h-136v173h1086v-429h-205v256h-548v-487h528v-168h-528v-516h155v-172h-492z" />
<glyph unicode="G" horiz-adv-x="1677" d="M56 760q0 106 25 205.5t71 187t111.5 159.5t147 123.5t176.5 80t201 28.5q95 0 178.5 -21t153.5 -55.5t125 -79.5t93 -94h104v-178h-220q-66 114 -172.5 178t-261.5 64q-116 0 -213 -48.5t-167.5 -131t-110 -190.5t-39.5 -228t39.5 -228t110 -190t168 -130t212.5 -48 q91 0 172 26t147.5 74t115.5 115t75 150h-326v192h520v-77l1 -649h-187v204q-97 -109 -224.5 -166.5t-293.5 -57.5q-160 0 -294 63t-231.5 170.5t-152 250t-54.5 301.5z" />
<glyph unicode="H" horiz-adv-x="1843" d="M143 0v172h144v1172h-144v172h492v-172h-151v-459h876v459h-152v172h492v-172h-143v-1172h143v-172h-492v172h152v545h-876v-545h151v-172h-492z" />
<glyph unicode="I" horiz-adv-x="780" d="M143 0v172h140v1172h-138v172h492v-172h-157v-1172h155v-172h-492z" />
<glyph unicode="J" horiz-adv-x="682" d="M145 -114q89 13 129.5 84.5t40.5 188.5v156v1028h-165v173h491v-173h-127v-969v-236q0 -89 -23 -160.5t-66.5 -122t-106.5 -78.5t-144 -30q-5 35 -14.5 69.5t-14.5 69.5z" />
<glyph unicode="K" horiz-adv-x="1563" d="M213 0v172h144v1172h-144v172h492v-172h-151v-457v-715h151v-172h-492zM661 778l528 566v172h353v-172h-121l-531 -570l554 -602h118v-172h-347v172z" />
<glyph unicode="L" horiz-adv-x="1296" d="M143 0v172h138v1172h-138v172h492v-172h-157v-1172h521q16 0 32.5 7.5t29.5 19.5t21 27.5t8 31.5v191h196v-449h-1143z" />
<glyph unicode="M" horiz-adv-x="2175" d="M143 1325v191h492l481 -1309l488 1309h469v-191h-158v-1153h154v-172h-492v172h152v1166l-531 -1338h-170l-536 1336v-1164h156v-172h-492v172h143v1153h-156z" />
<glyph unicode="N" horiz-adv-x="1606" d="M143 0v172h140v1171h-136v175h400l700 -1250v1076h-170v172h492v-172h-129v-1344h-256l-705 1257v-1085h156v-172h-492z" />
<glyph unicode="O" horiz-adv-x="1602" d="M66 758q0 109 25 210t71.5 189t112.5 159.5t147.5 122.5t177.5 79t203 28q161 0 296.5 -61.5t233.5 -168t152.5 -250.5t54.5 -308q0 -109 -25 -210t-71.5 -188.5t-112.5 -159.5t-147.5 -123.5t-178 -79.5t-202.5 -28q-107 0 -203 28t-178 79.5t-148 123.5t-112 159.5 t-71 188.5t-25 210zM271 758q0 -121 38.5 -229.5t109 -191t168 -131t216.5 -48.5t216.5 48.5t167.5 131t108 191t38 229.5q0 120 -38.5 229t-108.5 192t-167.5 132t-215.5 49q-119 0 -217 -49t-168 -131.5t-108.5 -192t-38.5 -229.5z" />
<glyph unicode="P" horiz-adv-x="1296" d="M143 1343v175l637 -2q102 0 187.5 -26.5t147.5 -78.5t97 -128.5t35 -176.5q0 -83 -34 -156.5t-95.5 -128.5t-148.5 -87t-193 -32h-268v-530h201v-172h-562v172h164v1171h-168zM508 866h272q57 0 104.5 15.5t82 45.5t54 75t19.5 104q0 112 -68 174.5t-216 62.5h-248v-477z " />
<glyph unicode="Q" horiz-adv-x="1665" d="M66 758q0 109 25 210t71.5 189t112.5 159.5t147.5 122.5t177.5 79t203 28q161 0 296.5 -61.5t233.5 -168t152.5 -250.5t54.5 -308q0 -109 -25 -210t-71.5 -188.5t-112.5 -159.5t-147.5 -123.5t-178 -79.5t-202.5 -28q-107 0 -203 28t-178 79.5t-148 123.5t-112 159.5 t-71 188.5t-25 210zM271 758q0 -121 38.5 -229.5t109 -191t168 -131t216.5 -48.5t216.5 48.5t167.5 131t108 191t38 229.5q0 120 -38.5 229t-108.5 192t-167.5 132t-215.5 49q-119 0 -217 -49t-168 -131.5t-108.5 -192t-38.5 -229.5zM702 -64v-179q14 6 38.5 9.5t45.5 3.5 q38 0 69 -10t60 -25t58 -33t63.5 -33t77.5 -25t100 -10q48 0 98 14t93.5 42.5t76 71t44.5 98.5l-152 69q-14 -59 -58.5 -87t-101.5 -28q-50 0 -86.5 10t-67.5 25t-59 32.5t-59 32.5t-68.5 25t-87.5 11q-21 0 -45.5 -4t-38.5 -10z" />
<glyph unicode="R" horiz-adv-x="1464" d="M143 1343v175l637 -2q102 0 187.5 -26.5t147.5 -78.5t97 -128.5t35 -176.5q0 -57 -20.5 -112.5t-57 -102.5t-86.5 -84t-109 -57q25 -11 51 -31.5t48.5 -50.5t40.5 -67.5t29 -80.5l84 -330h133v-190h-295l-113 461q-31 124 -94.5 182.5t-173.5 58.5h-194v-530h156v-172 h-492v172h139v1171h-150zM490 866h290q57 0 104.5 15t82 45t54 74.5t19.5 103.5q0 113 -68 176t-216 63h-266v-477z" />
<glyph unicode="S" horiz-adv-x="1210" d="M80 283v172h252v-49q0 -62 23.5 -108t65.5 -76.5t100 -46t128 -15.5q68 0 122.5 16t93 46.5t59 74t20.5 98.5q0 61 -25.5 104t-65 73t-87.5 49.5t-92 31.5l-219 62q-73 21 -132.5 54.5t-101.5 83t-65 115.5t-23 152q0 87 34 163t100 133t161.5 89.5t218.5 32.5 q81 0 149.5 -19t124 -53.5t98 -83t71.5 -106.5h75v-172h-245v66q-9 43 -36.5 76.5t-66 57t-84.5 36t-92 12.5q-76 0 -133 -17.5t-94.5 -47.5t-56.5 -70t-19 -84q0 -66 23 -107t59 -65.5t79.5 -38.5t84.5 -27l202 -66q90 -30 160 -67t117 -87.5t71.5 -116t24.5 -152.5 q0 -94 -38.5 -174t-107.5 -139t-164.5 -92.5t-209.5 -33.5q-117 0 -200 26.5t-139.5 71t-90.5 101.5t-53 117h-76z" />
<glyph unicode="T" horiz-adv-x="1434" d="M41 1116v400h1352v-400h-205v236h-399v-1180h156v-172h-492v172h139v1180h-346v-236h-205z" />
<glyph unicode="U" horiz-adv-x="1559" d="M113 1344v172h492v-172h-134v-703q0 -121 27.5 -205.5t76 -137.5t115 -77t144.5 -24q81 0 148 21t114.5 72t73.5 136.5t26 214.5v703h-141v172h492v-172h-136v-685q0 -162 -45.5 -288.5t-124.5 -213t-186 -132t-230 -45.5q-120 0 -224.5 45t-182 130t-122 208t-44.5 278 v703h-139z" />
<glyph unicode="V" horiz-adv-x="1485" d="M10 1344v172h492v-172h-132l369 -1170l377 1170h-133v172h492v-172h-150l-436 -1344h-305l-440 1344h-134z" />
<glyph unicode="W" horiz-adv-x="2294" d="M6 1344v172h492v-172h-155l335 -1166l364 1338h205l357 -1338l340 1166h-177v172h492v-172h-125l-395 -1344h-279l-323 1171l-322 -1171h-278l-400 1344h-131z" />
<glyph unicode="X" horiz-adv-x="1552" d="M170 0v172h99l432 603q-85 119 -170 237t-171 237q-17 24 -34 47.5t-34 47.5h-122v172h492v-172h-147q75 -105 148 -208t148 -208q75 105 149 208t149 208h-159v172h492v-172h-111q-17 -24 -34.5 -47.5t-34.5 -47.5q-86 -119 -171 -237.5t-171 -237.5 q90 -127 178.5 -251.5t178.5 -250.5q18 -25 35.5 -50t35.5 -50h94v-172h-492v172h185q-81 113 -162 225.5t-162 225.5q-82 -113 -163 -225.5t-163 -225.5h177v-172h-492z" />
<glyph unicode="Y" horiz-adv-x="1354" d="M51 1344v172h492v-172h-145l286 -488l305 488h-157v172h492v-172h-129l-427 -647v-525h156v-172h-492v172h139v530l-403 642h-117z" />
<glyph unicode="Z" horiz-adv-x="1214" d="M51 0v227l900 1116h-687v-256h-196v429h1095v-224l-913 -1120h711v252h196v-424h-1106z" />
<glyph unicode="[" horiz-adv-x="721" d="M238 -377v1933h403v-151h-219v-1630h219v-152h-403z" />
<glyph unicode="\" horiz-adv-x="948" d="M41 1581h162l704 -1606h-162z" />
<glyph unicode="]" horiz-adv-x="721" d="M80 -225h219v1630h-219v151h403v-1933h-403v152z" />
<glyph unicode="^" horiz-adv-x="1229" d="M156 723l403 790h113l403 -790h-143l-315 626l-320 -626h-141z" />
<glyph unicode="_" horiz-adv-x="1024" d="M0 -154h1024v-102h-1024v102z" />
<glyph unicode="`" horiz-adv-x="676" d="M184 1460v17h248l184 -299h-145z" />
<glyph unicode="a" horiz-adv-x="1042" d="M51 274q0 65 19.5 115t52 87t76 62t91 40t97 21.5t94.5 6.5q130 0 210 -20l1 94v6q0 52 -15 90q-16 40 -45 66.5t-70 39.5t-91 13q-47 0 -90 -6.5t-80.5 -17t-69 -24t-53.5 -28.5l-61 129q37 24 81 44.5t92.5 35t99 23t99.5 8.5q90 0 162 -21.5t122 -66.5t77 -114.5 t27 -166.5q0 -130 -1 -259t-2 -259h117v-172h-301v96q-59 -55 -130.5 -90t-162.5 -35q-76 0 -139.5 24t-109.5 65.5t-71.5 96.5t-25.5 117zM231 295q0 -42 15 -73.5t42.5 -52.5t65.5 -31.5t84 -10.5q37 0 74 9t70 24.5t61 36t47 42.5l1 238h-216q-54 0 -98.5 -12t-77 -35 t-50.5 -57t-18 -78z" />
<glyph unicode="b" horiz-adv-x="1253" d="M57 1385v172h330v-1h6v-606q66 51 144 81t161 30q102 0 187 -38t146.5 -107t95.5 -165.5t34 -213.5q0 -125 -38 -226.5t-105.5 -174.5t-160.5 -112.5t-204 -39.5q-77 0 -144.5 22.5t-115.5 58.5v-65h-186v1385h-150zM393 229q32 -33 94 -58.5t156 -25.5q64 0 123 24 t104 72.5t72 120.5t27 168q0 88 -25.5 156t-69 115t-101.5 71.5t-124 24.5q-73 0 -140 -30t-116 -81v-557z" />
<glyph unicode="c" horiz-adv-x="1116" d="M90 520q0 120 39 221t107 173.5t159 113.5t195 41q98 0 185.5 -34t153.5 -103h105v-172h-182q-1 -1 -2 -1t-2 -1q-1 0 -1 2h-1q-42 75 -106.5 110t-149.5 35q-65 0 -122.5 -27t-100 -77t-67 -121.5t-24.5 -159.5q0 -87 25 -157t67.5 -119.5t99.5 -76t122 -26.5 q96 0 167 46.5t113 136.5q38 -19 77 -38t77 -38q-30 -64 -74 -115t-99.5 -87t-122 -55.5t-140.5 -19.5q-108 0 -199.5 40.5t-158 113.5t-103.5 174t-37 221z" />
<glyph unicode="d" horiz-adv-x="1268" d="M92 528q0 120 36 218.5t102 168t159 108t207 38.5q75 0 137 -16.5t119 -57.5v398h-142v172h330v-172h-2v-1213h154v-172h-340v85q-50 -51 -116 -79.5t-150 -28.5q-105 0 -195.5 36.5t-157 107t-104 173t-37.5 234.5zM285 530q0 -96 24 -169t67 -122.5t103 -74.5t131 -25 q43 0 80 8t67 21.5t54 31.5t41 37v580q-50 42 -115 61t-133 19q-66 0 -124 -24.5t-101.5 -71.5t-68.5 -115t-25 -156z" />
<glyph unicode="e" horiz-adv-x="1118" d="M92 522q0 111 31 209.5t92.5 172t152.5 116.5t212 43q117 0 195.5 -35.5t128 -94t75 -133.5t35.5 -153q5 -38 6.5 -77t1.5 -76h-746q0 -44 6.5 -80.5t18.5 -69.5q37 -100 118.5 -150.5t184.5 -50.5q81 0 157.5 22.5t160.5 70.5l75 -127q-102 -70 -205 -104t-214 -34 q-105 0 -194.5 35t-154 104t-101 172t-36.5 240zM286 639h537q-4 58 -18.5 107t-44.5 85t-77 56t-116 20q-65 0 -113.5 -18.5t-82.5 -53t-54.5 -84.5t-30.5 -112z" />
<glyph unicode="f" horiz-adv-x="729" d="M41 885v151h201v162q0 90 24 157t68 112t106 67t138 22q53 0 95 -5t75 -13.5t58.5 -18.5t45.5 -20l-57 -133q-32 17 -83.5 29t-107.5 12q-83 0 -130.5 -51.5t-47.5 -151.5v-168h240v-151h-240v-713h162v-172h-492v172h146v713h-201z" />
<glyph unicode="g" horiz-adv-x="1208" d="M100 528q0 120 36 218.5t102 168t159 108t207 38.5q78 0 140.5 -17.5t121.5 -60.5v53h189v-995q0 -246 -118 -372t-364 -126q-54 0 -113 8t-116.5 25.5t-112 44.5t-100.5 66q25 38 50 75.5t50 75.5q30 -26 68.5 -48t82.5 -37.5t91 -24.5t94 -9q77 0 133.5 16t93 56.5 t54.5 109.5t18 175v15q-51 -54 -118.5 -84t-153.5 -30q-105 0 -195.5 36.5t-157 107t-104 173t-37.5 234.5zM293 530q0 -96 24 -169t67 -122.5t103 -74.5t131 -25q46 0 84 9t69 23.5t54.5 33.5t40.5 40v567q-51 45 -117.5 65t-136.5 20q-66 0 -124 -24.5t-101.5 -71.5 t-68.5 -115t-25 -156z" />
<glyph unicode="h" horiz-adv-x="1354" d="M92 0v172h156v1213h-142v172h330v-172h-2v-463q34 28 70.5 52.5t76.5 42.5t83 28t90 10q83 0 150 -23t114 -70t72.5 -120.5t25.5 -173.5v-496h156v-172h-492v172h142v473q0 119 -60.5 180.5t-173.5 61.5q-64 0 -130 -30.5t-124 -76.5v-608h150v-172h-492z" />
<glyph unicode="i" horiz-adv-x="657" d="M91 865v172h330v-1h9v-864h156v-172h-492v172h148v693h-151zM207 1403q0 26 10.5 49.5t28 41t41.5 28t51 10.5q26 0 49.5 -10.5t41 -28t28 -41t10.5 -49.5q0 -27 -10.5 -51t-28 -42.5t-41 -29t-49.5 -10.5q-27 0 -51 10.5t-41.5 29t-28 42.5t-10.5 51z" />
<glyph unicode="j" horiz-adv-x="604" d="M61 -332q89 13 129.5 84.5t40.5 188.5v924h-148v172h330v-1h7v-1116q0 -89 -23 -160.5t-66.5 -122t-106.5 -78.5t-144 -30q-5 35 -9.5 69.5t-9.5 69.5zM207 1403q0 24 9.5 45t25.5 37t37.5 25.5t45.5 9.5q25 0 46.5 -9.5t37.5 -25.5t25.5 -37t9.5 -45q0 -25 -9.5 -47 t-25.5 -38.5t-37.5 -26t-46.5 -9.5q-24 0 -45.5 9.5t-37.5 26t-25.5 38.5t-9.5 47z" />
<glyph unicode="k" horiz-adv-x="1276" d="M93 1385v172h364v-172h-2v-782v-431h86v-172h-443v172h170v1213h-175zM545 517q20 21 47.5 49.5t58 60t63 64.5t63 64.5t57.5 60t48 49.5h-62v172h394v-172h-132q-79 -82 -158 -163t-158 -163q87 -92 172 -183.5t172 -183.5h125v-172h-219q-53 58 -113.5 124t-122 134.5 t-122 134.5t-113.5 124z" />
<glyph unicode="l" horiz-adv-x="666" d="M92 0v172h150v1213h-149v172h334v-1l1 -1384h156v-172h-492z" />
<glyph unicode="m" horiz-adv-x="2040" d="M92 865v172h340v-122q34 29 71.5 54.5t78.5 44.5t85 30t92 11q112 0 193.5 -41.5t125.5 -129.5q37 34 79 65.5t88 54.5t96.5 37t104.5 14q83 0 150 -23t114 -70t72.5 -120.5t25.5 -173.5v-496h150v-172h-492v172h147v473q0 119 -60 180.5t-173 61.5q-67 0 -136.5 -33.5 t-129.5 -82.5q4 -24 6 -49.5t2 -53.5v-496h150v-172h-492v172h147v473q0 119 -60.5 180.5t-172.5 61.5q-65 0 -131 -31t-125 -77v-607h148v-172h-492v172h149v693h-151z" />
<glyph unicode="n" horiz-adv-x="1352" d="M92 865v172h340v-122q34 29 71.5 54.5t78.5 44.5t85 30t92 11q83 0 150 -23t114.5 -70t73 -120.5t25.5 -173.5v-496h148v-172h-492v172h149v473q0 119 -60.5 180.5t-172.5 61.5q-65 0 -131 -31t-125 -77v-607h148v-172h-492v172h149v693h-151z" />
<glyph unicode="o" horiz-adv-x="1219" d="M92 518q0 122 37.5 223t106 173.5t163.5 112.5t209 40q115 0 210.5 -39.5t163.5 -111t106 -172.5t38 -224q0 -124 -36.5 -225.5t-104 -174t-163.5 -112t-214 -39.5q-117 0 -212 40t-162.5 112.5t-104.5 173.5t-37 223zM285 518q0 -89 25.5 -160.5t70 -122t103 -77.5 t124.5 -27q69 0 128.5 27t103.5 77t69 121.5t25 161.5q0 94 -25 167t-68.5 122t-103.5 74.5t-129 25.5q-66 0 -124.5 -25.5t-103 -74.5t-70 -122t-25.5 -167z" />
<glyph unicode="p" horiz-adv-x="1249" d="M59 865v172h330v-87q66 51 144 81t161 30q102 0 187 -38t146.5 -107t95.5 -165.5t34 -213.5q0 -125 -38 -228t-105.5 -176.5t-160.5 -114.5t-204 -41q-79 0 -140.5 16.5t-117.5 42.5v-335h162v-172h-492v172h142v1164h-144zM391 227q33 -34 94.5 -61t153.5 -27 q64 0 123 25t104 74.5t72 122.5t27 169q0 88 -25.5 156t-69 115t-101.5 71.5t-124 24.5q-72 0 -138.5 -29t-115.5 -80v-561z" />
<glyph unicode="q" horiz-adv-x="1206" d="M93 528q0 120 36 218.5t102 168t158.5 108t206.5 38.5q74 0 134.5 -16.5t117.5 -54.5v46h187v-1335h155v-172h-492v172h150v379q-49 -48 -114.5 -75.5t-147.5 -27.5q-105 0 -195 36.5t-156.5 107t-104 173t-37.5 234.5zM285 530q0 -96 24 -169t67.5 -122.5t103 -74.5 t131.5 -25q84 0 143 28t94 66v588q-49 40 -113 58t-130 18t-124.5 -24.5t-102 -72t-68.5 -115.5t-25 -155z" />
<glyph unicode="r" horiz-adv-x="877" d="M65 0v172h146v693h-146v172h334v-144q18 32 40.5 59.5t50 48t61 32t72.5 11.5h98t92 -2v-225h-190v64q-33 0 -67.5 -12.5t-64.5 -38t-52.5 -65t-32.5 -93.5v-500h176v-172h-517z" />
<glyph unicode="s" horiz-adv-x="993" d="M82 111v172h207q0 -46 18.5 -78t49 -51.5t69 -28t78.5 -8.5t76 10t63 29t43 46t16 62q0 48 -30 79.5t-79 54t-110.5 41.5t-124.5 42q-114 42 -174.5 113t-60.5 168q0 64 24.5 119t71 95t113.5 62.5t153 22.5q61 0 111 -10t90 -27.5t69.5 -41.5t49.5 -52h98v-172h-205 q0 42 -19.5 72t-50.5 48.5t-69 27.5t-74 9q-41 0 -74.5 -9t-57.5 -26.5t-37 -42t-13 -55.5q0 -52 31.5 -83t105.5 -56q50 -17 99.5 -35t99.5 -35q128 -44 187 -117.5t59 -176.5q0 -69 -27 -126t-77.5 -97.5t-121.5 -62.5t-159 -22q-121 0 -197 38.5t-117 101.5h-104z" />
<glyph unicode="t" horiz-adv-x="762" d="M51 885v151h166l2 248l182 86l-2 -334h244v-151h-245l-3 -598q0 -51 9 -83t26 -50.5t41 -25.5t53 -7q32 0 69 9.5t75 23.5l43 -125q-48 -25 -101 -39.5t-125 -14.5q-68 0 -119 16.5t-85 55.5t-51 104.5t-17 163.5l3 570h-165z" />
<glyph unicode="u" horiz-adv-x="1198" d="M20 865v172h330l5 -1v-645q0 -119 55 -180t158 -61q61 0 128.5 22t127.5 62v631h-141v172h330l5 -1v-864h114v-172h-300v96q-70 -54 -153 -84t-177 -30q-78 0 -141.5 22.5t-108 70t-68.5 120.5t-24 174v496h-140z" />
<glyph unicode="v" horiz-adv-x="1067" d="M38 865v172h330v-172h-70l234 -715l234 715h-64v172h330v-172h-90l-317 -881h-187l-317 881h-83z" />
<glyph unicode="w" horiz-adv-x="1507" d="M-17 865v172h330v-172h-49l180 -662l248 833h156l237 -831l190 660h-61v172h330v-172h-90l-285 -881h-172l-229 827h-6l-234 -827h-174l-283 881h-88z" />
<glyph unicode="x" horiz-adv-x="1085" d="M41 865v172h344v-172h-40q48 -63 95.5 -124.5t96.5 -122.5q49 62 97 123.5t97 123.5h-51v172h344v-172h-88q-74 -85 -147.5 -169.5t-147.5 -169.5q78 -89 155.5 -177t155.5 -177h76v-172h-344v172h58q-52 64 -104.5 126.5t-100.5 129.5q-51 -64 -100.5 -128t-100.5 -128 h51v-172h-344v172h84l315 366q-75 82 -149 163.5t-149 163.5h-103z" />
<glyph unicode="y" horiz-adv-x="1176" d="M32 865v172h394v-172h-125l243 -662l255 662h-122v172h394v-172h-108l-462 -1164h142v-172h-419v172h127l110 285l-346 879h-83z" />
<glyph unicode="z" horiz-adv-x="924" d="M76 0v115l525 766h-331v-146h-184v301h741v-118l-524 -762h354v176h193v-332h-774z" />
<glyph unicode="{" horiz-adv-x="721" d="M133 526v127q42 0 73.5 23t52.5 60.5t31.5 85.5t10.5 98v298v74q0 63 18.5 112t48 83t67.5 51.5t77 17.5h137v-126h-69q-54 0 -74.5 -52.5t-20.5 -146.5v-348q0 -62 -13 -110t-35.5 -84t-53 -60t-66.5 -37v-4q36 -13 66.5 -37.5t53 -60.5t35.5 -84t13 -109v-348 q0 -95 21 -147t74 -52h69v-127h-137q-39 0 -77 17.5t-67.5 51.5t-48 83t-18.5 112v373q0 50 -10.5 97.5t-31.5 85t-52.5 60.5t-73.5 23z" />
<glyph unicode="|" horiz-adv-x="455" d="M152 -270v1996h155v-1996h-155z" />
<glyph unicode="}" horiz-adv-x="721" d="M72 -250h69q53 0 74 52t21 147v348q0 61 13 109.5t35.5 84.5t53 60t65.5 37v4q-35 13 -65.5 37t-53 60t-35.5 84t-13 110v348q0 94 -20.5 146.5t-74.5 52.5h-69v126h137q39 0 77 -17.5t67.5 -51.5t48 -83t18.5 -112v-74v-298q0 -50 10.5 -98t31.5 -85.5t52.5 -60.5 t73.5 -23v-127q-42 0 -73.5 -23t-52.5 -60.5t-31.5 -85t-10.5 -97.5v-298v-75q0 -63 -18.5 -112t-48 -83t-67.5 -51.5t-77 -17.5h-137v127z" />
<glyph unicode="~" horiz-adv-x="1229" d="M141 483q45 84 106 130t150 46q58 0 119.5 -22.5t119.5 -49t109 -49t89 -22.5q43 0 86.5 34.5t93.5 117.5l73 -115q-45 -84 -105.5 -130t-150.5 -46q-39 0 -79 10.5t-80.5 26.5t-79 34.5t-74 34.5t-67 26.5t-56.5 10.5q-43 0 -86.5 -34t-93.5 -117z" />
<glyph unicode="&#xa1;" horiz-adv-x="682" d="M211 -471h260l-41 1167h-178zM211 1010q0 26 10.5 49.5t28 41t41.5 28t51 10.5q26 0 49.5 -10.5t41 -28t28 -41t10.5 -49.5q0 -27 -10.5 -51t-28 -42.5t-41 -29t-49.5 -10.5q-27 0 -51 10.5t-41.5 29t-28 42.5t-10.5 51z" />
<glyph unicode="&#xa2;" horiz-adv-x="1210" d="M110 684q0 120 39 221t107 173.5t159 113.5t195 41q98 0 185.5 -34t153.5 -103h105v-172h-182q-1 -1 -2 -1t-2 -1q-1 0 -1 2h-1q-42 75 -106.5 110t-149.5 35q-65 0 -122.5 -27t-100 -77t-67 -121.5t-24.5 -159.5q0 -87 25 -157t67.5 -119.5t99.5 -76t122 -26.5 q96 0 167 46.5t113 136.5q38 -19 77 -38t77 -38q-30 -64 -74 -115t-99.5 -87t-122 -55.5t-140.5 -19.5q-108 0 -199.5 40.5t-158 113.5t-103.5 174t-37 221zM516 -186v390h197v-390h-197zM516 1190v390h197v-390h-197z" />
<glyph unicode="&#xa3;" horiz-adv-x="932" d="M33 662v145h195q-20 52 -35.5 106t-23.5 112q-2 20 -3.5 39.5t-1.5 39.5q0 78 27 143t76 112t117 73t151 26q74 0 136 -26.5t106 -73.5t66.5 -112t18.5 -142q-42 -2 -83 -5t-83 -5q-1 38 -11.5 74t-30.5 64t-49.5 45t-67.5 17q-44 0 -76.5 -12.5t-55 -34t-34.5 -50.5 t-15 -62q-4 -53 16.5 -133t55.5 -195h279v-145h-234q14 -43 24.5 -81.5t18.5 -70.5q9 -38 4.5 -83t-22 -91t-48.5 -88.5t-76 -75.5h486v-168h-799v168h110q61 35 98 83.5t52 106t9.5 123t-29.5 133.5l-8 22l-8 22h-252z" />
<glyph unicode="&#xa4;" horiz-adv-x="1128" d="M55 281l161 191q-43 57 -67 125.5t-24 145.5q0 79 25.5 150t70.5 128l-147 177l145 123l149 -179q46 24 97.5 37t107.5 13q55 0 106 -13t97 -36l137 164l160 -115l-145 -174q45 -57 69.5 -127t24.5 -148q0 -77 -24 -146t-68 -126l147 -176l-151 -119l-143 171 q-48 -25 -100.5 -38.5t-109.5 -13.5t-108.5 13t-98.5 37l-145 -175zM295 748q0 -59 22 -110t60 -89t89 -60t109 -22t109.5 22t89.5 60t60 89t22 110q0 58 -22 109t-60 89t-89.5 60t-109.5 22t-109 -22t-89 -60t-60 -89t-22 -109z" />
<glyph unicode="&#xa5;" horiz-adv-x="1354" d="M51 1344v172h492v-172h-145q72 -123 143 -244t143 -244q77 123 152.5 244t152.5 244h-157v172h492v-172h-129q-82 -125 -164 -248t-164 -248h184v-141h-277q-2 -2 -3 -5t-3 -5v-138h283v-141h-283v-246h156v-172h-492v172h139v246h-270v141h270v143q-1 2 -1.5 2.5 t-1.5 2.5h-267v141h178q-78 125 -155.5 248t-155.5 248h-117z" />
<glyph unicode="&#xa6;" horiz-adv-x="512" d="M152 -268v749h155v-749h-155zM152 979v750h155v-750h-155z" />
<glyph unicode="&#xa7;" horiz-adv-x="1094" d="M74 -25h237v-24q0 -55 18 -99t51.5 -75.5t81 -48.5t105.5 -17q104 0 162.5 54.5t58.5 150.5q0 53 -18.5 91t-47 64t-64.5 42.5t-70 27.5q-46 14 -91 28t-91 28q-64 19 -117.5 49t-92 73.5t-60 102t-21.5 135.5q0 103 48.5 187t141.5 136q-66 48 -107.5 125t-41.5 185 q0 78 27.5 143.5t81.5 113t133 74.5t182 27q82 0 149.5 -17.5t119.5 -49t87 -74.5t52 -94h65v-166h-232v56q-8 40 -32 71t-57.5 52.5t-74 32.5t-82.5 11q-57 0 -98.5 -12.5t-68.5 -35t-40.5 -53t-13.5 -67.5q0 -46 17.5 -79.5t45 -58t62 -41t68.5 -28.5q115 -41 207.5 -76.5 t157.5 -82t100 -111t35 -162.5q0 -106 -52.5 -191.5t-143.5 -139.5q70 -50 107 -123.5t37 -180.5q0 -86 -32.5 -159t-90.5 -126.5t-138 -83.5t-175 -30q-98 0 -169 23t-120 62t-79.5 90t-46.5 106h-70v165zM313 567q0 -54 20.5 -87t52.5 -53.5t70.5 -32.5t73.5 -25 q17 -6 34.5 -12.5t34.5 -12.5q111 4 176 59.5t65 149.5q0 51 -22 86.5t-56.5 60t-76.5 40.5t-81 28q-2 1 -3.5 1t-3.5 1q0 -1 0.5 -2t0.5 -2h-23q-65 0 -114 -15.5t-82 -42.5t-49.5 -63t-16.5 -78z" />
<glyph unicode="&#xa8;" horiz-adv-x="612" d="M47 1362q0 26 10.5 49.5t28 41t41.5 28t51 10.5q26 0 49.5 -10.5t41 -28t28 -41t10.5 -49.5q0 -27 -10.5 -51t-28 -42.5t-41 -29t-49.5 -10.5q-27 0 -51 10.5t-41.5 29t-28 42.5t-10.5 51zM504 1362q0 26 10.5 49.5t28 41t41.5 28t51 10.5q26 0 49.5 -10.5t41 -28t28 -41 t10.5 -49.5q0 -27 -10.5 -51t-28 -42.5t-41 -29t-49.5 -10.5q-27 0 -51 10.5t-41.5 29t-28 42.5t-10.5 51z" />
<glyph unicode="&#xa9;" horiz-adv-x="1919" d="M102 831q0 118 30.5 227.5t86 204.5t133.5 173t173 133.5t204.5 86t228.5 30.5q118 0 228 -30.5t205.5 -86t174 -133.5t134.5 -173t86.5 -204.5t30.5 -227.5q0 -119 -30.5 -228.5t-86.5 -204.5t-134.5 -173t-174 -133.5t-205.5 -86t-228 -30.5q-119 0 -228.5 30.5 t-204.5 86t-173 133.5t-133.5 173t-86 204.5t-30.5 228.5zM283 831q0 -142 52.5 -265.5t144 -215t214.5 -144t264 -52.5q94 0 181 24t162 67.5t136.5 105t105 137t67.5 162t24 181.5q0 94 -24 181t-67.5 162t-105 136.5t-136.5 105t-162 67.5t-181 24t-180.5 -24 t-161.5 -67.5t-136.5 -105t-105 -136.5t-67.5 -162t-24 -181zM477 834q0 104 39 195.5t107 160t159.5 108t196.5 39.5q58 0 109.5 -12.5t96 -33t81 -47t65.5 -54.5l-141 -131q-17 19 -41.5 35t-53 28t-58.5 18.5t-58 6.5q-64 0 -120 -24.5t-97.5 -67.5t-65.5 -100t-24 -121 t24 -120t65.5 -98t97.5 -66t120 -24q56 0 108.5 22.5t83.5 57.5l134 -129q-23 -30 -59 -56.5t-79 -46t-91.5 -31t-96.5 -11.5q-105 0 -196.5 39t-159.5 107t-107 159.5t-39 196.5z" />
<glyph unicode="&#xaa;" horiz-adv-x="838" d="M102 1149q0 58 27 99.5t70 67.5t96.5 38t105.5 12q47 0 83.5 -4t66.5 -10v49q0 68 -42.5 98.5t-111.5 30.5q-65 0 -117 -13.5t-87 -33.5l-50 96q57 35 128.5 56.5t144.5 21.5q64 0 116 -14.5t88.5 -44.5t56 -77.5t19.5 -113.5v-313h82v-131h-227v56q-42 -34 -90 -54.5 t-111 -20.5q-55 0 -100.5 16t-78.5 44t-51 65.5t-18 79.5zM244 1161q0 -49 35.5 -74.5t95.5 -25.5q54 0 101.5 20t74.5 47v136h-156q-32 0 -60 -7t-48 -20t-31.5 -32t-11.5 -44z" />
<glyph unicode="&#xab;" horiz-adv-x="1040" d="M102 565l56 99l164 294h192l-229 -393l229 -393h-192zM526 565l56 99l163 294h193l-229 -393l229 -393h-193z" />
<glyph unicode="&#xac;" horiz-adv-x="1214" d="M49 815v184h1094v-567h-182v383h-912z" />
<glyph unicode="&#xad;" horiz-adv-x="737" d="M94 496v172h551v-172h-551z" />
<glyph unicode="&#xae;" horiz-adv-x="1919" d="M102 831q0 118 30.5 227.5t86 204.5t133.5 173t173 133.5t204.5 86t228.5 30.5q118 0 228 -30.5t205.5 -86t174 -133.5t134.5 -173t86.5 -204.5t30.5 -227.5q0 -119 -30.5 -228.5t-86.5 -204.5t-134.5 -173t-174 -133.5t-205.5 -86t-228 -30.5q-119 0 -228.5 30.5 t-204.5 86t-173 133.5t-133.5 173t-86 204.5t-30.5 228.5zM283 831q0 -142 52.5 -265.5t144 -215t214.5 -144t264 -52.5q94 0 181 24t162 67.5t136.5 105t105 137t67.5 162t24 181.5q0 94 -24 181t-67.5 162t-105 136.5t-136.5 105t-162 67.5t-181 24t-180.5 -24 t-161.5 -67.5t-136.5 -105t-105 -136.5t-67.5 -162t-24 -181zM551 1187v158h483q73 0 131.5 -21t99.5 -58t63.5 -87t22.5 -108q0 -98 -40.5 -155t-118.5 -91q31 -17 55 -52t37 -87l41 -168h82l2 -158h-256l-52 254q-17 83 -65.5 120.5t-126.5 37.5h-68v-254h93v-158h-379 v158h98v669h-102zM841 927h144q74 0 118 30.5t44 98.5q0 62 -42 96.5t-128 34.5h-136v-260z" />
<glyph unicode="&#xaf;" horiz-adv-x="797" d="M39 1229v117h758v-117h-758z" />
<glyph unicode="&#xb0;" horiz-adv-x="682" d="M102 1497q0 49 19 92.5t51 76.5t75.5 52t92.5 19t92.5 -19t76.5 -52t52 -76.5t19 -92.5t-19 -92t-52 -75.5t-76.5 -51t-92.5 -18.5t-92.5 18.5t-75.5 51t-51 75.5t-19 92zM205 1497q0 -28 10.5 -52.5t29 -43t43 -29t52.5 -10.5t52.5 10.5t43.5 29t30 43t11 52.5t-11 52.5 t-30 43.5t-43.5 30t-52.5 11t-52.5 -11t-43 -30t-29 -43.5t-10.5 -52.5z" />
<glyph unicode="&#xb1;" horiz-adv-x="1229" d="M102 79v162h1024v-162h-1024zM102 711v182h420v420h183v-420h421v-182h-421v-402h-183v402h-420z" />
<glyph unicode="&#xb2;" horiz-adv-x="592" d="M53 1350q0 52 19.5 94.5t53.5 72.5t78.5 46t94.5 16q52 0 97 -15t78 -43.5t52 -68.5t19 -90q0 -38 -19 -80t-61 -84l-235 -235h313v-121h-488v102l275 277q32 32 57 67.5t25 73.5q0 19 -8 36.5t-23 30.5t-36.5 21t-47.5 8q-53 0 -85 -30t-34 -78h-125z" />
<glyph unicode="&#xb3;" horiz-adv-x="631" d="M51 1051h133q8 -48 41.5 -73.5t87.5 -25.5q25 0 48 7.5t40 21.5t27 32.5t10 41.5q0 48 -35.5 77t-93.5 29h-57v107h55q57 0 89 27t32 69q0 16 -8 33.5t-23.5 31.5t-38 23.5t-51.5 9.5q-16 0 -36 -5.5t-37 -17.5t-29 -30.5t-12 -44.5h-132q3 44 22 83.5t51 69t76 47 t95 17.5q56 0 103 -17.5t80.5 -46.5t52 -67t18.5 -80q0 -48 -23 -87.5t-69 -64.5q42 -19 72 -60.5t30 -100.5q0 -48 -20 -89.5t-55.5 -72t-83.5 -47.5t-103 -17q-48 0 -94 14.5t-82 43t-58 69t-22 93.5z" />
<glyph unicode="&#xb4;" horiz-adv-x="645" d="M84 1178l213 299h240v-17l-299 -282h-154z" />
<glyph unicode="&#xb5;" horiz-adv-x="1198" d="M158 -471v1506h2l195 1v-645q0 -119 55 -180t158 -61q61 0 128.5 22t127.5 62v802h194v-864h114v-172h-300v96q-70 -54 -153 -84t-177 -30q-83 0 -147 24v-477h-197z" />
<glyph unicode="&#xb6;" horiz-adv-x="1274" d="M41 1104q0 102 35 179t100 129t156.5 78t204.5 26h598v-162h-80v-1723h-181v1723h-229v-1723h-180v1070q-93 6 -171 38.5t-134.5 85t-87.5 124t-31 155.5z" />
<glyph unicode="&#xb7;" horiz-adv-x="612" d="M174 668q0 26 10.5 49.5t28 41t41.5 28t51 10.5q26 0 49.5 -10.5t41 -28t28 -41t10.5 -49.5q0 -27 -10.5 -51t-28 -42.5t-41 -29t-49.5 -10.5q-27 0 -51 10.5t-41.5 29t-28 42.5t-10.5 51z" />
<glyph unicode="&#xb8;" horiz-adv-x="940" d="M182 -303q55 1 99.5 19.5t78 48.5t55 70.5t29.5 86.5l150 -45q-18 -73 -56 -130.5t-90.5 -97t-117.5 -60.5t-137 -21z" />
<glyph unicode="&#xb9;" horiz-adv-x="436" d="M33 1321v139l217 119h59v-627h80v-112h-297v112h82v445z" />
<glyph unicode="&#xba;" horiz-adv-x="934" d="M102 1300q0 78 27 144.5t75 115t115 76t148 27.5t148 -26.5t115 -74.5t74.5 -114t26.5 -145q0 -80 -26 -146.5t-74 -114.5t-115 -75t-149 -27t-149.5 26.5t-115.5 74.5t-74 114t-26 145zM254 1300q0 -52 17 -94t46 -71.5t67.5 -45.5t82.5 -16q45 0 84 16t67.5 45.5 t45 71.5t16.5 94q0 55 -16.5 98t-45 71.5t-67.5 43.5t-84 15q-44 0 -82.5 -15t-67.5 -43.5t-46 -71.5t-17 -98z" />
<glyph unicode="&#xbb;" horiz-adv-x="1040" d="M102 172l230 393l-230 393h193l164 -294l55 -99l-219 -393h-193zM526 172l230 393l-230 393h193l164 -294l55 -99l-219 -393h-193z" />
<glyph unicode="&#xbc;" horiz-adv-x="2806" d="M655 -61l1276 1638h199l-1276 -1638h-199zM682 1263v139l217 119h59v-627h80v-112h-297v112h82v445zM1735 303l280 457h148l-273 -455h183v164h135v-164h112v-110h-112v-195h-135v195h-336z" />
<glyph unicode="&#xbd;" horiz-adv-x="2806" d="M655 -61l1276 1638h199l-1276 -1638h-199zM682 1263v139l217 119h59v-627h80v-112h-297v112h82v445zM1692 512q0 56 20 100.5t54.5 75.5t81.5 47.5t100 16.5q51 0 97 -14.5t80.5 -43t54.5 -70t20 -94.5q0 -42 -19.5 -79t-54.5 -74l-229 -236h301v-141h-504v121l274 276 q32 32 54 64.5t22 64.5q0 35 -27 60.5t-73 25.5q-50 0 -78.5 -28.5t-28.5 -71.5h-145z" />
<glyph unicode="&#xbe;" horiz-adv-x="2806" d="M599 1004h133q8 -48 41.5 -73.5t87.5 -25.5q25 0 48 7.5t40 21.5t27 32.5t10 41.5q0 48 -35.5 77t-93.5 29h-57v107h55q57 0 89 27t32 69q0 16 -8 33.5t-23.5 31.5t-38 23.5t-51.5 9.5q-16 0 -36 -5.5t-37 -17.5t-29 -30.5t-12 -44.5h-132q3 44 22 83.5t51 69t76 47 t95 17.5q56 0 103 -17.5t80.5 -46.5t52 -67t18.5 -80q0 -48 -23 -87.5t-69 -64.5q42 -19 72 -60.5t30 -100.5q0 -48 -20 -89.5t-55.5 -72t-83.5 -47.5t-103 -17q-48 0 -94 14.5t-82 43t-58 69t-22 93.5zM655 -61l1276 1638h199l-1276 -1638h-199zM1571 303l280 457h148 l-273 -455h183v164h135v-164h112v-110h-112v-195h-135v195h-336z" />
<glyph unicode="&#xbf;" horiz-adv-x="1065" d="M9 -55q0 102 52 188t155 158q47 33 82 61t60.5 57t41.5 62t25.5 76.5t13.5 100t4 132.5h180q0 -104 -7.5 -181.5t-28.5 -138t-58 -110.5t-96 -100q-53 -45 -96.5 -78t-74.5 -64.5t-48 -68t-17 -88.5q0 -45 18 -87t48.5 -74.5t72 -52.5t88.5 -20q81 0 135 28t87 67.5 t47 83t14 75.5l176 -12q-5 -84 -40.5 -159t-95.5 -131.5t-142 -90t-181 -33.5q-101 0 -178 33t-130 88t-80 127.5t-27 151.5zM405 1022q0 26 10.5 49.5t28 41t41.5 28t51 10.5q26 0 49.5 -10.5t41 -28t28 -41t10.5 -49.5q0 -27 -10.5 -51t-28 -42.5t-41 -29t-49.5 -10.5 q-27 0 -51 10.5t-41.5 29t-28 42.5t-10.5 51z" />
<glyph unicode="&#xc0;" d="M10 0h492v172h-157l118 344h583l120 -344h-126v-172h492v172h-152l-471 1344h-295l-473 -1344h-131v-172zM397 1939v17h248l184 -299h-145zM519 682l232 698l237 -698h-469z" />
<glyph unicode="&#xc1;" d="M10 0v172h131l473 1344h295l471 -1344h152v-172h-492v172h126l-120 344h-583l-118 -344h157v-172h-492zM519 682h469l-237 698zM616 1657l213 299h240v-17l-299 -282h-154z" />
<glyph unicode="&#xc2;" d="M10 0h492v172h-157l118 344h583l120 -344h-126v-172h492v172h-152l-471 1344h-295l-473 -1344h-131v-172zM498 1655l250 313h63l252 -313h-149l-133 155l-135 -155h-148zM519 682l232 698l237 -698h-469z" />
<glyph unicode="&#xc3;" d="M10 0v172h131l473 1344h295l471 -1344h152v-172h-492v172h126l-120 344h-583l-118 -344h157v-172h-492zM401 1730q13 47 37 78.5t54 50.5t64.5 27t69.5 8q50 0 86.5 -16.5t68 -36t62.5 -35.5t70 -16q28 0 54.5 19t35.5 61l119 -35q-20 -85 -78 -131.5t-139 -46.5 q-56 0 -95 15.5t-71 33.5t-60 33.5t-61 15.5q-15 0 -30.5 -2t-30.5 -9.5t-27.5 -23t-19.5 -43.5zM519 682h469l-237 698z" />
<glyph unicode="&#xc4;" d="M10 0v172h131l473 1344h295l471 -1344h152v-172h-492v172h126l-120 344h-583l-118 -344h157v-172h-492zM389 1839q0 26 10.5 49.5t28 41t41.5 28t51 10.5q26 0 49.5 -10.5t41 -28t28 -41t10.5 -49.5q0 -27 -10.5 -51t-28 -42.5t-41 -29t-49.5 -10.5q-27 0 -51 10.5 t-41.5 29t-28 42.5t-10.5 51zM519 682h469l-237 698zM848 1839q0 26 10.5 49.5t28 41t41.5 28t51 10.5q26 0 49.5 -10.5t41 -28t28 -41t10.5 -49.5q0 -27 -10.5 -51t-28 -42.5t-41 -29t-49.5 -10.5q-27 0 -51 10.5t-41.5 29t-28 42.5t-10.5 51z" />
<glyph unicode="&#xc5;" d="M10 0v172h131l473 1344h295l471 -1344h152v-172h-492v172h126l-120 344h-583l-118 -344h157v-172h-492zM504 1691q0 52 20.5 99t55.5 81.5t81.5 55t98.5 20.5t99 -20.5t81.5 -55t55 -81.5t20.5 -99t-20.5 -98.5t-55 -81.5t-81.5 -55.5t-99 -20.5t-98.5 20.5t-81.5 55.5 t-55.5 81.5t-20.5 98.5zM519 682h469l-237 698zM656 1691q0 -21 8.5 -39.5t23 -33t33 -23t39.5 -8.5t40 8.5t33.5 23t23 33t8.5 39.5t-8.5 40t-23 33.5t-33.5 23t-40 8.5t-39.5 -8.5t-33 -23t-23 -33.5t-8.5 -40z" />
<glyph unicode="&#xc6;" horiz-adv-x="1915" d="M-2 0v172h106l816 1344h938v-429h-205v256h-465v-481h379v-172h-379v-518h465v256h205v-428h-992v172h125v254h-517q-37 -64 -74 -127t-74 -127h164v-172h-492zM575 598h416v535v179q-105 -180 -208 -357t-208 -357z" />
<glyph unicode="&#xc7;" horiz-adv-x="1503" d="M46 760q0 106 25 205.5t71 187t111.5 159.5t147 123.5t176.5 80t201 28.5q95 0 178.5 -21t153.5 -55.5t125 -79.5t93 -94h104v-178h-220q-66 114 -172.5 178t-261.5 64q-116 0 -213 -48.5t-167.5 -131t-110 -190.5t-39.5 -228t39.5 -228t110 -190t168 -130t212.5 -48 q151 0 256.5 62t180.5 188l223 -2q-46 -98 -111 -178t-148 -138t-183.5 -89.5t-217.5 -31.5q-160 0 -294 63t-231.5 170.5t-152 250t-54.5 301.5zM510 -303q55 1 99.5 19.5t78 48.5t55 70.5t29.5 86.5l150 -45q-18 -73 -56 -130.5t-90.5 -97t-117.5 -60.5t-137 -21z" />
<glyph unicode="&#xc8;" horiz-adv-x="1266" d="M123 0h1085v428h-204v-256h-539v514h453v172h-453v485h539v-256h204v429h-1085v-173h145v-1171h-145v-172zM346 1939v17h248l184 -299h-145z" />
<glyph unicode="&#xc9;" horiz-adv-x="1266" d="M123 0v172h145v1171h-145v173h1085v-429h-204v256h-539v-485h453v-172h-453v-514h539v256h204v-428h-1085zM565 1657l213 299h240v-17l-299 -282h-154z" />
<glyph unicode="&#xca;" horiz-adv-x="1266" d="M123 0h1085v428h-204v-256h-539v514h453v172h-453v485h539v-256h204v429h-1085v-173h145v-1171h-145v-172zM446 1655l250 313h63l252 -313h-149l-133 155l-135 -155h-148z" />
<glyph unicode="&#xcb;" horiz-adv-x="1266" d="M123 0v172h145v1171h-145v173h1085v-429h-204v256h-539v-485h453v-172h-453v-514h539v256h204v-428h-1085zM338 1839q0 26 10.5 49.5t28 41t41.5 28t51 10.5q26 0 49.5 -10.5t41 -28t28 -41t10.5 -49.5q0 -27 -10.5 -51t-28 -42.5t-41 -29t-49.5 -10.5q-27 0 -51 10.5 t-41.5 29t-28 42.5t-10.5 51zM797 1839q0 26 10.5 49.5t28 41t41.5 28t51 10.5q26 0 49.5 -10.5t41 -28t28 -41t10.5 -49.5q0 -27 -10.5 -51t-28 -42.5t-41 -29t-49.5 -10.5q-27 0 -51 10.5t-41.5 29t-28 42.5t-10.5 51z" />
<glyph unicode="&#xcc;" horiz-adv-x="700" d="M-13 1939v17h248l184 -299h-145zM104 0h492v172h-155v1172h158v172h-492v-172h137v-1172h-140v-172z" />
<glyph unicode="&#xcd;" horiz-adv-x="700" d="M104 0v172h140v1172h-137v172h492v-172h-158v-1172h155v-172h-492zM207 1657l213 299h240v-17l-299 -282h-154z" />
<glyph unicode="&#xce;" horiz-adv-x="700" d="M88 1655l250 313h63l252 -313h-149l-133 155l-135 -155h-148zM104 0h492v172h-155v1172h158v172h-492v-172h137v-1172h-140v-172z" />
<glyph unicode="&#xcf;" horiz-adv-x="700" d="M-21 1839q0 26 10.5 49.5t28 41t41.5 28t51 10.5q26 0 49.5 -10.5t41 -28t28 -41t10.5 -49.5q0 -27 -10.5 -51t-28 -42.5t-41 -29t-49.5 -10.5q-27 0 -51 10.5t-41.5 29t-28 42.5t-10.5 51zM104 0v172h140v1172h-137v172h492v-172h-158v-1172h155v-172h-492zM438 1839 q0 26 10.5 49.5t28 41t41.5 28t51 10.5q26 0 49.5 -10.5t41 -28t28 -41t10.5 -49.5q0 -27 -10.5 -51t-28 -42.5t-41 -29t-49.5 -10.5q-27 0 -51 10.5t-41.5 29t-28 42.5t-10.5 51z" />
<glyph unicode="&#xd0;" horiz-adv-x="1516" d="M127 676v172h551v-172h-551zM139 0v172h156v1171h-156v173h576q104 0 198 -27t175 -76t147 -117.5t112.5 -152.5t71.5 -180.5t25 -200.5q0 -106 -25 -203t-71.5 -182t-112.5 -154.5t-147 -119t-175 -76.5t-198 -27h-576zM492 172h235q105 0 197.5 46t161.5 125.5t109 187 t40 231.5q0 122 -40 228t-109 184.5t-161.5 123.5t-197.5 45h-235v-1171z" />
<glyph unicode="&#xd1;" horiz-adv-x="1565" d="M102 0v172h140v1171h-136v175h400l700 -1250v1076h-170v172h492v-172h-129v-1344h-256l-705 1257v-1085h156v-172h-492zM430 1730q13 47 37 78.5t54 50.5t64.5 27t69.5 8q50 0 86.5 -16.5t68 -36t62.5 -35.5t70 -16q28 0 54.5 19t35.5 61l119 -35q-20 -85 -78 -131.5 t-139 -46.5q-56 0 -95 15.5t-71 33.5t-60 33.5t-61 15.5q-15 0 -30.5 -2t-30.5 -9.5t-27.5 -23t-19.5 -43.5z" />
<glyph unicode="&#xd2;" horiz-adv-x="1593" d="M66 758q0 109 25 210t71.5 189t112.5 159.5t147.5 122.5t177.5 79t203 28q161 0 296.5 -61.5t233.5 -168t152.5 -250.5t54.5 -308q0 -109 -25 -210t-71.5 -188.5t-112.5 -159.5t-147.5 -123.5t-178 -79.5t-202.5 -28q-107 0 -203 28t-178 79.5t-148 123.5t-112 159.5 t-71 188.5t-25 210zM271 758q0 -121 38.5 -229.5t109 -191t168 -131t216.5 -48.5t216.5 48.5t167.5 131t108 191t38 229.5q0 120 -38.5 229t-108.5 192t-167.5 132t-215.5 49q-119 0 -217 -49t-168 -131.5t-108.5 -192t-38.5 -229.5zM438 1857v17h248l184 -299h-145z" />
<glyph unicode="&#xd3;" horiz-adv-x="1593" d="M66 758q0 109 25 210t71.5 189t112.5 159.5t147.5 122.5t177.5 79t203 28q161 0 296.5 -61.5t233.5 -168t152.5 -250.5t54.5 -308q0 -109 -25 -210t-71.5 -188.5t-112.5 -159.5t-147.5 -123.5t-178 -79.5t-202.5 -28q-107 0 -203 28t-178 79.5t-148 123.5t-112 159.5 t-71 188.5t-25 210zM271 758q0 -121 38.5 -229.5t109 -191t168 -131t216.5 -48.5t216.5 48.5t167.5 131t108 191t38 229.5q0 120 -38.5 229t-108.5 192t-167.5 132t-215.5 49q-119 0 -217 -49t-168 -131.5t-108.5 -192t-38.5 -229.5zM657 1575l213 299h240v-17l-299 -282 h-154z" />
<glyph unicode="&#xd4;" horiz-adv-x="1593" d="M66 758q0 109 25 210t71.5 189t112.5 159.5t147.5 122.5t177.5 79t203 28q161 0 296.5 -61.5t233.5 -168t152.5 -250.5t54.5 -308q0 -109 -25 -210t-71.5 -188.5t-112.5 -159.5t-147.5 -123.5t-178 -79.5t-202.5 -28q-107 0 -203 28t-178 79.5t-148 123.5t-112 159.5 t-71 188.5t-25 210zM271 758q0 -121 38.5 -229.5t109 -191t168 -131t216.5 -48.5t216.5 48.5t167.5 131t108 191t38 229.5q0 120 -38.5 229t-108.5 192t-167.5 132t-215.5 49q-119 0 -217 -49t-168 -131.5t-108.5 -192t-38.5 -229.5zM539 1655l250 313h63l252 -313h-149 l-133 155l-135 -155h-148z" />
<glyph unicode="&#xd5;" horiz-adv-x="1593" d="M66 758q0 109 25 210t71.5 189t112.5 159.5t147.5 122.5t177.5 79t203 28q161 0 296.5 -61.5t233.5 -168t152.5 -250.5t54.5 -308q0 -109 -25 -210t-71.5 -188.5t-112.5 -159.5t-147.5 -123.5t-178 -79.5t-202.5 -28q-107 0 -203 28t-178 79.5t-148 123.5t-112 159.5 t-71 188.5t-25 210zM271 758q0 -121 38.5 -229.5t109 -191t168 -131t216.5 -48.5t216.5 48.5t167.5 131t108 191t38 229.5q0 120 -38.5 229t-108.5 192t-167.5 132t-215.5 49q-119 0 -217 -49t-168 -131.5t-108.5 -192t-38.5 -229.5zM442 1730q13 47 37 78.5t54 50.5 t64.5 27t69.5 8q50 0 86.5 -16.5t68 -36t62.5 -35.5t70 -16q28 0 54.5 19t35.5 61l119 -35q-20 -85 -78 -131.5t-139 -46.5q-56 0 -95 15.5t-71 33.5t-60 33.5t-61 15.5q-15 0 -30.5 -2t-30.5 -9.5t-27.5 -23t-19.5 -43.5z" />
<glyph unicode="&#xd6;" horiz-adv-x="1602" d="M66 758q0 109 25 210t71.5 189t112.5 159.5t147.5 122.5t177.5 79t203 28q161 0 296.5 -61.5t233.5 -168t152.5 -250.5t54.5 -308q0 -109 -25 -210t-71.5 -188.5t-112.5 -159.5t-147.5 -123.5t-178 -79.5t-202.5 -28q-107 0 -203 28t-178 79.5t-148 123.5t-112 159.5 t-71 188.5t-25 210zM271 758q0 -121 38.5 -229.5t109 -191t168 -131t216.5 -48.5t216.5 48.5t167.5 131t108 191t38 229.5q0 120 -38.5 229t-108.5 192t-167.5 132t-215.5 49q-119 0 -217 -49t-168 -131.5t-108.5 -192t-38.5 -229.5zM430 1839q0 26 10.5 49.5t28 41t41.5 28 t51 10.5q26 0 49.5 -10.5t41 -28t28 -41t10.5 -49.5q0 -27 -10.5 -51t-28 -42.5t-41 -29t-49.5 -10.5q-27 0 -51 10.5t-41.5 29t-28 42.5t-10.5 51zM889 1839q0 26 10.5 49.5t28 41t41.5 28t51 10.5q26 0 49.5 -10.5t41 -28t28 -41t10.5 -49.5q0 -27 -10.5 -51t-28 -42.5 t-41 -29t-49.5 -10.5q-27 0 -51 10.5t-41.5 29t-28 42.5t-10.5 51z" />
<glyph unicode="&#xd7;" horiz-adv-x="1303" d="M133 207l392 469l-373 448l145 123l353 -422l341 408l160 -115l-373 -447l377 -450l-151 -119l-350 420l-355 -426z" />
<glyph unicode="&#xd8;" horiz-adv-x="1593" d="M66 758q0 109 25 210t71.5 189t112.5 159.5t147.5 122.5t177.5 79t203 28q161 0 296.5 -61.5t233.5 -168t152.5 -250.5t54.5 -308q0 -109 -25 -210t-71.5 -188.5t-112.5 -159.5t-147.5 -123.5t-178 -79.5t-202.5 -28q-107 0 -203 28t-178 79.5t-148 123.5t-112 159.5 t-71 188.5t-25 210zM170 -61l1276 1638h199l-1276 -1638h-199zM271 758q0 -121 38.5 -229.5t109 -191t168 -131t216.5 -48.5t216.5 48.5t167.5 131t108 191t38 229.5q0 120 -38.5 229t-108.5 192t-167.5 132t-215.5 49q-119 0 -217 -49t-168 -131.5t-108.5 -192 t-38.5 -229.5z" />
<glyph unicode="&#xd9;" horiz-adv-x="1559" d="M113 1344h139v-703q0 -155 44.5 -278t122 -208t182 -130t224.5 -45q123 0 230 45.5t186 132t124.5 213t45.5 288.5v685h136v172h-492v-172h141v-703q0 -129 -26 -214.5t-73.5 -136.5t-114.5 -72t-148 -21q-78 0 -144.5 24t-115 77t-76 137.5t-27.5 205.5v703h134v172 h-492v-172zM469 1939v17h248l184 -299h-145z" />
<glyph unicode="&#xda;" horiz-adv-x="1559" d="M113 1344v172h492v-172h-134v-703q0 -121 27.5 -205.5t76 -137.5t115 -77t144.5 -24q81 0 148 21t114.5 72t73.5 136.5t26 214.5v703h-141v172h492v-172h-136v-685q0 -162 -45.5 -288.5t-124.5 -213t-186 -132t-230 -45.5q-120 0 -224.5 45t-182 130t-122 208t-44.5 278 v703h-139zM688 1657l213 299h240v-17l-299 -282h-154z" />
<glyph unicode="&#xdb;" horiz-adv-x="1559" d="M113 1344h139v-703q0 -155 44.5 -278t122 -208t182 -130t224.5 -45q123 0 230 45.5t186 132t124.5 213t45.5 288.5v685h136v172h-492v-172h141v-703q0 -129 -26 -214.5t-73.5 -136.5t-114.5 -72t-148 -21q-78 0 -144.5 24t-115 77t-76 137.5t-27.5 205.5v703h134v172 h-492v-172zM569 1655l250 313h63l252 -313h-149l-133 155l-135 -155h-148z" />
<glyph unicode="&#xdc;" horiz-adv-x="1559" d="M113 1344v172h492v-172h-134v-703q0 -121 27.5 -205.5t76 -137.5t115 -77t144.5 -24q81 0 148 21t114.5 72t73.5 136.5t26 214.5v703h-141v172h492v-172h-136v-685q0 -162 -45.5 -288.5t-124.5 -213t-186 -132t-230 -45.5q-120 0 -224.5 45t-182 130t-122 208t-44.5 278 v703h-139zM461 1839q0 26 10.5 49.5t28 41t41.5 28t51 10.5q26 0 49.5 -10.5t41 -28t28 -41t10.5 -49.5q0 -27 -10.5 -51t-28 -42.5t-41 -29t-49.5 -10.5q-27 0 -51 10.5t-41.5 29t-28 42.5t-10.5 51zM919 1839q0 26 10.5 49.5t28 41t41.5 28t51 10.5q26 0 49.5 -10.5 t41 -28t28 -41t10.5 -49.5q0 -27 -10.5 -51t-28 -42.5t-41 -29t-49.5 -10.5q-27 0 -51 10.5t-41.5 29t-28 42.5t-10.5 51z" />
<glyph unicode="&#xdd;" horiz-adv-x="1354" d="M51 1344v172h492v-172h-145l286 -488l305 488h-157v172h492v-172h-129l-427 -647v-525h156v-172h-492v172h139v530l-403 642h-117zM565 1657l213 299h240v-17l-299 -282h-154z" />
<glyph unicode="&#xde;" horiz-adv-x="1323" d="M104 0v172h140v1172h-137v172h492v-172h-158v-135l327 -1q101 0 186.5 -26.5t148 -78t97.5 -128t35 -176.5q0 -83 -34 -156.5t-95.5 -128.5t-148.5 -87t-193 -32h-323v-223h155v-172h-492zM441 559h327q57 0 104.5 15.5t82 45.5t54 75t19.5 104q0 112 -68 174.5 t-217 62.5h-302v-477z" />
<glyph unicode="&#xdf;" horiz-adv-x="1247" d="M17 0v172h184v1008q0 70 27.5 141t79.5 128t128 92.5t174 35.5q93 0 173 -33.5t139.5 -90t93 -131.5t33.5 -159q0 -46 -9 -84.5t-24 -71t-34 -58t-39 -45.5q50 -33 91 -77t70 -97.5t45 -115t16 -129.5q0 -111 -39 -203t-107 -158t-159 -102t-194 -36q-39 0 -78 6v188 q20 -5 39 -7.5t39 -2.5q65 0 122 24.5t99.5 67.5t67 100.5t24.5 122.5t-25.5 122.5t-68 100t-99 67t-118.5 24.5h-80v186h78q8 0 15.5 -0.5t15.5 -0.5q32 4 60 21t48.5 41t32.5 53.5t12 59.5q0 50 -17.5 92.5t-49 73.5t-76 48.5t-99.5 17.5q-48 0 -87 -17.5t-66.5 -48.5 t-42.5 -74t-15 -94v-1157h-127h-253z" />
<glyph unicode="&#xe0;" horiz-adv-x="1042" d="M51 274q0 -62 25.5 -117t71.5 -96.5t109.5 -65.5t139.5 -24q91 0 162.5 35t130.5 90v-96h301v172h-117q1 130 2 259t1 259q0 97 -27 166.5t-77 114.5t-122 66.5t-162 21.5q-49 0 -99.5 -8.5t-99 -23t-92.5 -35t-81 -44.5l61 -129q22 15 53.5 28.5t69 24t80.5 17t90 6.5 q50 0 91 -13t70 -39.5t45 -67t15 -95.5l-1 -94q-80 20 -210 20q-45 0 -94.5 -6.5t-97 -21.5t-91 -40t-76 -62t-52 -87t-19.5 -115zM223 1460v17h248l184 -299h-145zM231 295q0 44 18 78t50.5 57t77 35t98.5 12h216l-1 -238q-19 -22 -47 -42.5t-61 -36t-70 -24.5t-74 -9 q-46 0 -84 10.5t-65.5 31.5t-42.5 52.5t-15 73.5z" />
<glyph unicode="&#xe1;" horiz-adv-x="1042" d="M51 274q0 65 19.5 115t52 87t76 62t91 40t97 21.5t94.5 6.5q130 0 210 -20l1 94q1 55 -15 95.5t-45 67t-70 39.5t-91 13q-47 0 -90 -6.5t-80.5 -17t-69 -24t-53.5 -28.5l-61 129q37 24 81 44.5t92.5 35t99 23t99.5 8.5q90 0 162 -21.5t122 -66.5t77 -114.5t27 -166.5 q0 -130 -1 -259t-2 -259h117v-172h-301v96q-59 -55 -130.5 -90t-162.5 -35q-76 0 -139.5 24t-109.5 65.5t-71.5 96.5t-25.5 117zM231 295q0 -42 15 -73.5t42.5 -52.5t65.5 -31.5t84 -10.5q37 0 74 9t70 24.5t61 36t47 42.5l1 238h-216q-54 0 -98.5 -12t-77 -35t-50.5 -57 t-18 -78zM381 1178l213 299h240v-17l-299 -282h-154z" />
<glyph unicode="&#xe2;" horiz-adv-x="1042" d="M51 274q0 -62 25.5 -117t71.5 -96.5t109.5 -65.5t139.5 -24q91 0 162.5 35t130.5 90v-96h301v172h-117q1 130 2 259t1 259q0 97 -27 166.5t-77 114.5t-122 66.5t-162 21.5q-49 0 -99.5 -8.5t-99 -23t-92.5 -35t-81 -44.5l61 -129q22 15 53.5 28.5t69 24t80.5 17t90 6.5 q50 0 91 -13t70 -39.5t45 -67t15 -95.5l-1 -94q-80 20 -210 20q-45 0 -94.5 -6.5t-97 -21.5t-91 -40t-76 -62t-52 -87t-19.5 -115zM231 295q0 44 18 78t50.5 57t77 35t98.5 12h216l-1 -238q-19 -22 -47 -42.5t-61 -36t-70 -24.5t-74 -9q-46 0 -84 10.5t-65.5 31.5 t-42.5 52.5t-15 73.5zM262 1176l250 313h63l252 -313h-149l-133 155l-135 -155h-148z" />
<glyph unicode="&#xe3;" horiz-adv-x="1042" d="M51 274q0 65 19.5 115t52 87t76 62t91 40t97 21.5t94.5 6.5q130 0 210 -20l1 94q1 55 -15 95.5t-45 67t-70 39.5t-91 13q-47 0 -90 -6.5t-80.5 -17t-69 -24t-53.5 -28.5l-61 129q37 24 81 44.5t92.5 35t99 23t99.5 8.5q90 0 162 -21.5t122 -66.5t77 -114.5t27 -166.5 q0 -130 -1 -259t-2 -259h117v-172h-301v96q-59 -55 -130.5 -90t-162.5 -35q-76 0 -139.5 24t-109.5 65.5t-71.5 96.5t-25.5 117zM166 1251q13 47 37 78.5t54 50.5t64.5 27t69.5 8q50 0 86.5 -16.5t68 -36t62.5 -35.5t70 -16q28 0 54.5 19t35.5 61l119 -35 q-20 -85 -78 -131.5t-139 -46.5q-56 0 -95 15.5t-71 33.5t-60 33.5t-61 15.5q-15 0 -30.5 -2t-30.5 -9.5t-27.5 -23t-19.5 -43.5zM231 295q0 -42 15 -73.5t42.5 -52.5t65.5 -31.5t84 -10.5q37 0 74 9t70 24.5t61 36t47 42.5l1 238h-216q-54 0 -98.5 -12t-77 -35t-50.5 -57 t-18 -78z" />
<glyph unicode="&#xe4;" horiz-adv-x="1042" d="M51 274q0 65 19.5 115t52 87t76 62t91 40t97 21.5t94.5 6.5q130 0 210 -20l1 94q1 55 -15 95.5t-45 67t-70 39.5t-91 13q-47 0 -90 -6.5t-80.5 -17t-69 -24t-53.5 -28.5l-61 129q37 24 81 44.5t92.5 35t99 23t99.5 8.5q90 0 162 -21.5t122 -66.5t77 -114.5t27 -166.5 q0 -130 -1 -259t-2 -259h117v-172h-301v96q-59 -55 -130.5 -90t-162.5 -35q-76 0 -139.5 24t-109.5 65.5t-71.5 96.5t-25.5 117zM154 1360q0 26 10.5 49.5t28 41t41.5 28t51 10.5q26 0 49.5 -10.5t41 -28t28 -41t10.5 -49.5q0 -27 -10.5 -51t-28 -42.5t-41 -29t-49.5 -10.5 q-27 0 -51 10.5t-41.5 29t-28 42.5t-10.5 51zM231 295q0 -42 15 -73.5t42.5 -52.5t65.5 -31.5t84 -10.5q37 0 74 9t70 24.5t61 36t47 42.5l1 238h-216q-54 0 -98.5 -12t-77 -35t-50.5 -57t-18 -78zM612 1360q0 26 10.5 49.5t28 41t41.5 28t51 10.5q26 0 49.5 -10.5t41 -28 t28 -41t10.5 -49.5q0 -27 -10.5 -51t-28 -42.5t-41 -29t-49.5 -10.5q-27 0 -51 10.5t-41.5 29t-28 42.5t-10.5 51z" />
<glyph unicode="&#xe5;" horiz-adv-x="1042" d="M51 274q0 65 19.5 115t52 87t76 62t91 40t97 21.5t94.5 6.5q130 0 210 -20l1 94q1 55 -15 95.5t-45 67t-70 39.5t-91 13q-47 0 -90 -6.5t-80.5 -17t-69 -24t-53.5 -28.5l-61 129q37 24 81 44.5t92.5 35t99 23t99.5 8.5q90 0 162 -21.5t122 -66.5t77 -114.5t27 -166.5 q0 -130 -1 -259t-2 -259h117v-172h-301v96q-59 -55 -130.5 -90t-162.5 -35q-76 0 -139.5 24t-109.5 65.5t-71.5 96.5t-25.5 117zM231 295q0 -42 15 -73.5t42.5 -52.5t65.5 -31.5t84 -10.5q37 0 74 9t70 24.5t61 36t47 42.5l1 238h-216q-54 0 -98.5 -12t-77 -35t-50.5 -57 t-18 -78zM268 1437q0 52 20.5 99t55.5 81.5t81.5 55t98.5 20.5t99 -20.5t81.5 -55t55 -81.5t20.5 -99t-20.5 -98.5t-55 -81.5t-81.5 -55.5t-99 -20.5t-98.5 20.5t-81.5 55.5t-55.5 81.5t-20.5 98.5zM420 1437q0 -21 8.5 -39.5t23 -33t33 -23t39.5 -8.5t40 8.5t33.5 23t23 33 t8.5 39.5t-8.5 40t-23 33.5t-33.5 23t-40 8.5t-39.5 -8.5t-33 -23t-23 -33.5t-8.5 -40z" />
<glyph unicode="&#xe6;" horiz-adv-x="1784" d="M51 274q0 65 19.5 115t52 87t76 62t91 40t97 21.5t94.5 6.5q132 0 212 -21l1 95q1 55 -15 95.5t-45.5 67t-71 39.5t-91.5 13q-47 0 -90 -6.5t-80.5 -17t-69 -24t-53.5 -28.5l-61 129q37 24 81 44.5t92.5 35t99 23t99.5 8.5q90 0 162 -21.5t122 -66.5t77 -114.5t27 -166.5 v-84t-0.5 -39.5t-1 -16.5t-1 -16.5t-0.5 -39.5v-84l-164 92l-3 -25h-232q-54 0 -98.5 -12t-77 -35t-50.5 -57t-18 -78q0 -42 15 -73.5t42.5 -52.5t65.5 -31.5t84 -10.5q62 0 115.5 15.5t97.5 43.5t77.5 66.5t55.5 83.5l52 -137q-26 -52 -70 -94t-100 -72t-120 -46t-128 -16 q-84 0 -151.5 24t-115.5 65.5t-74 96.5t-26 117zM690 522q0 111 31 209.5t92.5 172t152.5 116.5t212 43q117 0 195.5 -35.5t128 -94t75 -133.5t35.5 -153q5 -38 6.5 -77t1.5 -76h-746q0 -44 6.5 -80.5t18.5 -69.5q37 -100 118.5 -150.5t184.5 -50.5q81 0 157.5 22.5 t160.5 70.5l75 -127q-102 -70 -205 -104t-214 -34q-105 0 -194.5 35t-154 104t-101 172t-36.5 240zM884 639h537q-4 58 -18.5 107t-44.5 85t-77 56t-116 20q-65 0 -113.5 -18.5t-82.5 -53t-54.5 -84.5t-30.5 -112z" />
<glyph unicode="&#xe7;" horiz-adv-x="1116" d="M90 520q0 120 39 221t107 173.5t159 113.5t195 41q98 0 185.5 -34t153.5 -103h105v-172h-182q-1 -1 -2 -1t-2 -1q-1 0 -1 2h-1q-42 75 -106.5 110t-149.5 35q-65 0 -122.5 -27t-100 -77t-67 -121.5t-24.5 -159.5q0 -87 25 -157t67.5 -119.5t99.5 -76t122 -26.5 q96 0 167 46.5t113 136.5q38 -19 77 -38t77 -38q-30 -64 -74 -115t-99.5 -87t-122 -55.5t-140.5 -19.5q-108 0 -199.5 40.5t-158 113.5t-103.5 174t-37 221zM323 -303q55 1 99.5 19.5t78 48.5t55 70.5t29.5 86.5l150 -45q-18 -73 -56 -130.5t-90.5 -97t-117.5 -60.5 t-137 -21z" />
<glyph unicode="&#xe8;" horiz-adv-x="1118" d="M92 522q0 111 31 209.5t92.5 172t152.5 116.5t212 43q117 0 195.5 -35.5t128 -94t75 -133.5t35.5 -153q5 -38 6.5 -77t1.5 -76h-746q0 -44 6.5 -80.5t18.5 -69.5q37 -100 118.5 -150.5t184.5 -50.5q81 0 157.5 22.5t160.5 70.5l75 -127q-102 -70 -205 -104t-214 -34 q-105 0 -194.5 35t-154 104t-101 172t-36.5 240zM221 1460v17h248l184 -299h-145zM286 639h537q-4 58 -18.5 107t-44.5 85t-77 56t-116 20q-65 0 -113.5 -18.5t-82.5 -53t-54.5 -84.5t-30.5 -112z" />
<glyph unicode="&#xe9;" horiz-adv-x="1118" d="M92 522q0 111 31 209.5t92.5 172t152.5 116.5t212 43q117 0 195.5 -35.5t128 -94t75 -133.5t35.5 -153q5 -38 6.5 -77t1.5 -76h-746q0 -44 6.5 -80.5t18.5 -69.5q37 -100 118.5 -150.5t184.5 -50.5q81 0 157.5 22.5t160.5 70.5l75 -127q-102 -70 -205 -104t-214 -34 q-105 0 -194.5 35t-154 104t-101 172t-36.5 240zM286 639h537q-4 58 -18.5 107t-44.5 85t-77 56t-116 20q-65 0 -113.5 -18.5t-82.5 -53t-54.5 -84.5t-30.5 -112zM440 1178l213 299h240v-17l-299 -282h-154z" />
<glyph unicode="&#xea;" horiz-adv-x="1118" d="M92 522q0 111 31 209.5t92.5 172t152.5 116.5t212 43q117 0 195.5 -35.5t128 -94t75 -133.5t35.5 -153q5 -38 6.5 -77t1.5 -76h-746q0 -44 6.5 -80.5t18.5 -69.5q37 -100 118.5 -150.5t184.5 -50.5q81 0 157.5 22.5t160.5 70.5l75 -127q-102 -70 -205 -104t-214 -34 q-105 0 -194.5 35t-154 104t-101 172t-36.5 240zM286 639h537q-4 58 -18.5 107t-44.5 85t-77 56t-116 20q-65 0 -113.5 -18.5t-82.5 -53t-54.5 -84.5t-30.5 -112zM321 1176l250 313h63l252 -313h-149l-133 155l-135 -155h-148z" />
<glyph unicode="&#xeb;" horiz-adv-x="1118" d="M92 522q0 111 31 209.5t92.5 172t152.5 116.5t212 43q117 0 195.5 -35.5t128 -94t75 -133.5t35.5 -153q5 -38 6.5 -77t1.5 -76h-746q0 -44 6.5 -80.5t18.5 -69.5q37 -100 118.5 -150.5t184.5 -50.5q81 0 157.5 22.5t160.5 70.5l75 -127q-102 -70 -205 -104t-214 -34 q-105 0 -194.5 35t-154 104t-101 172t-36.5 240zM213 1362q0 26 10.5 49.5t28 41t41.5 28t51 10.5q26 0 49.5 -10.5t41 -28t28 -41t10.5 -49.5q0 -27 -10.5 -51t-28 -42.5t-41 -29t-49.5 -10.5q-27 0 -51 10.5t-41.5 29t-28 42.5t-10.5 51zM286 639h537q-4 58 -18.5 107 t-44.5 85t-77 56t-116 20q-65 0 -113.5 -18.5t-82.5 -53t-54.5 -84.5t-30.5 -112zM672 1362q0 26 10.5 49.5t28 41t41.5 28t51 10.5q26 0 49.5 -10.5t41 -28t28 -41t10.5 -49.5q0 -27 -10.5 -51t-28 -42.5t-41 -29t-49.5 -10.5q-27 0 -51 10.5t-41.5 29t-28 42.5t-10.5 51z " />
<glyph unicode="&#xec;" horiz-adv-x="612" d="M-54 1460v17h248l184 -299h-145zM59 865h150v-693h-148v-172h492v172h-156v864h-8v1h-330v-172z" />
<glyph unicode="&#xed;" horiz-adv-x="612" d="M59 865v172h330v-1h8v-864h156v-172h-492v172h148v693h-150zM166 1178l213 299h240v-17l-299 -282h-154z" />
<glyph unicode="&#xee;" horiz-adv-x="612" d="M47 1176l250 313h63l252 -313h-149l-133 155l-135 -155h-148zM59 865h150v-693h-148v-172h492v172h-156v864h-8v1h-330v-172z" />
<glyph unicode="&#xef;" horiz-adv-x="612" d="M-62 1360q0 26 10.5 49.5t28 41t41.5 28t51 10.5q26 0 49.5 -10.5t41 -28t28 -41t10.5 -49.5q0 -27 -10.5 -51t-28 -42.5t-41 -29t-49.5 -10.5q-27 0 -51 10.5t-41.5 29t-28 42.5t-10.5 51zM59 865v172h330v-1h8v-864h156v-172h-492v172h148v693h-150zM397 1360 q0 26 10.5 49.5t28 41t41.5 28t51 10.5q26 0 49.5 -10.5t41 -28t28 -41t10.5 -49.5q0 -27 -10.5 -51t-28 -42.5t-41 -29t-49.5 -10.5q-27 0 -51 10.5t-41.5 29t-28 42.5t-10.5 51z" />
<glyph unicode="&#xf0;" horiz-adv-x="1270" d="M94 529q0 103 40 190t106.5 149t152.5 97t178 35q39 0 88 -3.5t111 -30.5l-338 560h234l368 -668q51 -93 84 -179t33 -175q0 -114 -43.5 -207.5t-116.5 -160t-167.5 -103.5t-196.5 -37q-108 0 -204.5 35.5t-169.5 104t-116 167.5t-43 226zM281 502q0 -74 27.5 -135 t74.5 -105t109 -68t131 -24q73 0 135.5 22.5t108.5 65t72 104.5t26 140q0 48 -7.5 89.5t-20.5 78.5q-48 79 -119.5 122.5t-168.5 43.5q-74 0 -140.5 -21.5t-117 -63.5t-80.5 -104.5t-30 -144.5zM475 1174v172h492v-172h-492z" />
<glyph unicode="&#xf1;" horiz-adv-x="1333" d="M72 865v172h340v-122q34 29 71.5 54.5t78.5 44.5t85 30t92 11q83 0 150 -23t114.5 -70t73 -120.5t25.5 -173.5v-496h170v-172h-492v172h127v473q0 119 -60.5 180.5t-172.5 61.5q-65 0 -131 -31t-125 -77v-607h148v-172h-492v172h149v693h-151zM309 1251q13 47 37 78.5 t54 50.5t64.5 27t69.5 8q50 0 86.5 -16.5t68 -36t62.5 -35.5t70 -16q28 0 54.5 19t35.5 61l119 -35q-20 -85 -78 -131.5t-139 -46.5q-56 0 -95 15.5t-71 33.5t-60 33.5t-61 15.5q-15 0 -30.5 -2t-30.5 -9.5t-27.5 -23t-19.5 -43.5z" />
<glyph unicode="&#xf2;" horiz-adv-x="1219" d="M92 518q0 122 37.5 223t106 173.5t163.5 112.5t209 40q115 0 210.5 -39.5t163.5 -111t106 -172.5t38 -224q0 -124 -36.5 -225.5t-104 -174t-163.5 -112t-214 -39.5q-117 0 -212 40t-162.5 112.5t-104.5 173.5t-37 223zM250 1460v17h248l184 -299h-145zM285 518 q0 -89 25.5 -160.5t70 -122t103 -77.5t124.5 -27q69 0 128.5 27t103.5 77t69 121.5t25 161.5q0 94 -25 167t-68.5 122t-103.5 74.5t-129 25.5q-66 0 -124.5 -25.5t-103 -74.5t-70 -122t-25.5 -167z" />
<glyph unicode="&#xf3;" horiz-adv-x="1219" d="M92 518q0 122 37.5 223t106 173.5t163.5 112.5t209 40q115 0 210.5 -39.5t163.5 -111t106 -172.5t38 -224q0 -124 -36.5 -225.5t-104 -174t-163.5 -112t-214 -39.5q-117 0 -212 40t-162.5 112.5t-104.5 173.5t-37 223zM285 518q0 -89 25.5 -160.5t70 -122t103 -77.5 t124.5 -27q69 0 128.5 27t103.5 77t69 121.5t25 161.5q0 94 -25 167t-68.5 122t-103.5 74.5t-129 25.5q-66 0 -124.5 -25.5t-103 -74.5t-70 -122t-25.5 -167zM469 1178l213 299h240v-17l-299 -282h-154z" />
<glyph unicode="&#xf4;" horiz-adv-x="1219" d="M92 518q0 122 37.5 223t106 173.5t163.5 112.5t209 40q115 0 210.5 -39.5t163.5 -111t106 -172.5t38 -224q0 -124 -36.5 -225.5t-104 -174t-163.5 -112t-214 -39.5q-117 0 -212 40t-162.5 112.5t-104.5 173.5t-37 223zM285 518q0 -89 25.5 -160.5t70 -122t103 -77.5 t124.5 -27q69 0 128.5 27t103.5 77t69 121.5t25 161.5q0 94 -25 167t-68.5 122t-103.5 74.5t-129 25.5q-66 0 -124.5 -25.5t-103 -74.5t-70 -122t-25.5 -167zM350 1176l250 313h63l252 -313h-149l-133 155l-135 -155h-148z" />
<glyph unicode="&#xf5;" horiz-adv-x="1219" d="M92 518q0 122 37.5 223t106 173.5t163.5 112.5t209 40q115 0 210.5 -39.5t163.5 -111t106 -172.5t38 -224q0 -124 -36.5 -225.5t-104 -174t-163.5 -112t-214 -39.5q-117 0 -212 40t-162.5 112.5t-104.5 173.5t-37 223zM254 1251q13 47 37 78.5t54 50.5t64.5 27t69.5 8 q50 0 86.5 -16.5t68 -36t62.5 -35.5t70 -16q28 0 54.5 19t35.5 61l119 -35q-20 -85 -78 -131.5t-139 -46.5q-56 0 -95 15.5t-71 33.5t-60 33.5t-61 15.5q-15 0 -30.5 -2t-30.5 -9.5t-27.5 -23t-19.5 -43.5zM285 518q0 -89 25.5 -160.5t70 -122t103 -77.5t124.5 -27 q69 0 128.5 27t103.5 77t69 121.5t25 161.5q0 94 -25 167t-68.5 122t-103.5 74.5t-129 25.5q-66 0 -124.5 -25.5t-103 -74.5t-70 -122t-25.5 -167z" />
<glyph unicode="&#xf6;" horiz-adv-x="1219" d="M92 518q0 122 37.5 223t106 173.5t163.5 112.5t209 40q115 0 210.5 -39.5t163.5 -111t106 -172.5t38 -224q0 -124 -36.5 -225.5t-104 -174t-163.5 -112t-214 -39.5q-117 0 -212 40t-162.5 112.5t-104.5 173.5t-37 223zM242 1362q0 26 10.5 49.5t28 41t41.5 28t51 10.5 q26 0 49.5 -10.5t41 -28t28 -41t10.5 -49.5q0 -27 -10.5 -51t-28 -42.5t-41 -29t-49.5 -10.5q-27 0 -51 10.5t-41.5 29t-28 42.5t-10.5 51zM285 518q0 -89 25.5 -160.5t70 -122t103 -77.5t124.5 -27q69 0 128.5 27t103.5 77t69 121.5t25 161.5q0 94 -25 167t-68.5 122 t-103.5 74.5t-129 25.5q-66 0 -124.5 -25.5t-103 -74.5t-70 -122t-25.5 -167zM700 1362q0 26 10.5 49.5t28 41t41.5 28t51 10.5q26 0 49.5 -10.5t41 -28t28 -41t10.5 -49.5q0 -27 -10.5 -51t-28 -42.5t-41 -29t-49.5 -10.5q-27 0 -51 10.5t-41.5 29t-28 42.5t-10.5 51z" />
<glyph unicode="&#xf7;" horiz-adv-x="1126" d="M51 454v162h1024v-162h-1024zM414 123q0 26 10.5 49.5t28 41t41.5 28t51 10.5q26 0 49.5 -10.5t41 -28t28 -41t10.5 -49.5q0 -27 -10.5 -51t-28 -42.5t-41 -29t-49.5 -10.5q-27 0 -51 10.5t-41.5 29t-28 42.5t-10.5 51zM414 909q0 26 10.5 49.5t28 41t41.5 28t51 10.5 q26 0 49.5 -10.5t41 -28t28 -41t10.5 -49.5q0 -27 -10.5 -51t-28 -42.5t-41 -29t-49.5 -10.5q-27 0 -51 10.5t-41.5 29t-28 42.5t-10.5 51z" />
<glyph unicode="&#xf8;" horiz-adv-x="1219" d="M49 -61l961 1228h198l-960 -1228h-199zM92 518q0 122 37.5 223t106 173.5t163.5 112.5t209 40q115 0 210.5 -39.5t163.5 -111t106 -172.5t38 -224q0 -124 -36.5 -225.5t-104 -174t-163.5 -112t-214 -39.5q-117 0 -212 40t-162.5 112.5t-104.5 173.5t-37 223zM285 518 q0 -89 25.5 -160.5t70 -122t103 -77.5t124.5 -27q69 0 128.5 27t103.5 77t69 121.5t25 161.5q0 94 -25 167t-68.5 122t-103.5 74.5t-129 25.5q-66 0 -124.5 -25.5t-103 -74.5t-70 -122t-25.5 -167z" />
<glyph unicode="&#xf9;" horiz-adv-x="1198" d="M20 865h140v-496q0 -101 24 -174t68.5 -120.5t108 -70t141.5 -22.5q94 0 177 30t153 84v-96h300v172h-114v864l-5 1h-330v-172h141v-631q-60 -40 -127.5 -62t-128.5 -22q-103 0 -158 61t-55 180v645l-5 1h-330v-172zM217 1460v17h248l184 -299h-145z" />
<glyph unicode="&#xfa;" horiz-adv-x="1198" d="M20 865v172h330l5 -1v-645q0 -119 55 -180t158 -61q61 0 128.5 22t127.5 62v631h-141v172h330l5 -1v-864h114v-172h-300v96q-70 -54 -153 -84t-177 -30q-78 0 -141.5 22.5t-108 70t-68.5 120.5t-24 174v496h-140zM436 1178l213 299h240v-17l-299 -282h-154z" />
<glyph unicode="&#xfb;" horiz-adv-x="1198" d="M20 865h140v-496q0 -101 24 -174t68.5 -120.5t108 -70t141.5 -22.5q94 0 177 30t153 84v-96h300v172h-114v864l-5 1h-330v-172h141v-631q-60 -40 -127.5 -62t-128.5 -22q-103 0 -158 61t-55 180v645l-5 1h-330v-172zM317 1176l250 313h63l252 -313h-149l-133 155 l-135 -155h-148z" />
<glyph unicode="&#xfc;" horiz-adv-x="1198" d="M20 865v172h330l5 -1v-645q0 -119 55 -180t158 -61q61 0 128.5 22t127.5 62v631h-141v172h330l5 -1v-864h114v-172h-300v96q-70 -54 -153 -84t-177 -30q-78 0 -141.5 22.5t-108 70t-68.5 120.5t-24 174v496h-140zM209 1360q0 26 10.5 49.5t28 41t41.5 28t51 10.5 q26 0 49.5 -10.5t41 -28t28 -41t10.5 -49.5q0 -27 -10.5 -51t-28 -42.5t-41 -29t-49.5 -10.5q-27 0 -51 10.5t-41.5 29t-28 42.5t-10.5 51zM668 1360q0 26 10.5 49.5t28 41t41.5 28t51 10.5q26 0 49.5 -10.5t41 -28t28 -41t10.5 -49.5q0 -27 -10.5 -51t-28 -42.5t-41 -29 t-49.5 -10.5q-27 0 -51 10.5t-41.5 29t-28 42.5t-10.5 51z" />
<glyph unicode="&#xfd;" horiz-adv-x="1176" d="M32 865v172h394v-172h-125l243 -662l255 662h-122v172h394v-172h-108l-462 -1164h142v-172h-419v172h127l110 285l-346 879h-83zM416 1178l213 299h240v-17l-299 -282h-154z" />
<glyph unicode="&#xfe;" horiz-adv-x="1243" d="M55 -299h144v1704h-142v172h330v-172h-2v-455q66 51 144 81t161 30q102 0 187 -38t146.5 -107t95.5 -165.5t34 -213.5q0 -125 -38 -226.5t-105.5 -174.5t-160.5 -112.5t-204 -39.5q-77 0 -144.5 22t-115.5 59v-364h162v-172h-492v172zM385 229q32 -33 94 -58.5t156 -25.5 q64 0 123 24t104 72.5t72 120.5t27 168q0 88 -25.5 156t-69 115t-101.5 71.5t-124 24.5q-73 0 -140 -30t-116 -81v-557z" />
<glyph unicode="&#xff;" horiz-adv-x="1176" d="M32 865v172h394v-172h-125l243 -662l255 662h-122v172h394v-172h-108l-462 -1164h142v-172h-419v172h127l110 285l-346 879h-83zM188 1360q0 26 10.5 49.5t28 41t41.5 28t51 10.5q26 0 49.5 -10.5t41 -28t28 -41t10.5 -49.5q0 -27 -10.5 -51t-28 -42.5t-41 -29 t-49.5 -10.5q-27 0 -51 10.5t-41.5 29t-28 42.5t-10.5 51zM647 1360q0 26 10.5 49.5t28 41t41.5 28t51 10.5q26 0 49.5 -10.5t41 -28t28 -41t10.5 -49.5q0 -27 -10.5 -51t-28 -42.5t-41 -29t-49.5 -10.5q-27 0 -51 10.5t-41.5 29t-28 42.5t-10.5 51z" />
<glyph unicode="&#x178;" horiz-adv-x="1354" d="M51 1344v172h492v-172h-145l286 -488l305 488h-157v172h492v-172h-129l-427 -647v-525h156v-172h-492v172h139v530l-403 642h-117zM338 1840q0 26 10.5 49.5t28 41t41.5 28t51 10.5q26 0 49.5 -10.5t41 -28t28 -41t10.5 -49.5q0 -27 -10.5 -51t-28 -42.5t-41 -29 t-49.5 -10.5q-27 0 -51 10.5t-41.5 29t-28 42.5t-10.5 51zM797 1840q0 26 10.5 49.5t28 41t41.5 28t51 10.5q26 0 49.5 -10.5t41 -28t28 -41t10.5 -49.5q0 -27 -10.5 -51t-28 -42.5t-41 -29t-49.5 -10.5q-27 0 -51 10.5t-41.5 29t-28 42.5t-10.5 51z" />
<glyph unicode="&#x2c6;" horiz-adv-x="860" d="M217 1176l250 313h63l252 -313h-149l-133 155l-135 -155h-148z" />
<glyph unicode="&#x2dc;" horiz-adv-x="903" d="M88 1251q13 47 37 78.5t54 50.5t64.5 27t69.5 8q50 0 86.5 -16.5t68 -36t62.5 -35.5t70 -16q28 0 54.5 19t35.5 61l119 -35q-20 -85 -78 -131.5t-139 -46.5q-56 0 -95 15.5t-71 33.5t-60 33.5t-61 15.5q-15 0 -30.5 -2t-30.5 -9.5t-27.5 -23t-19.5 -43.5z" />
<glyph unicode="&#x2000;" horiz-adv-x="984" />
<glyph unicode="&#x2001;" horiz-adv-x="1969" />
<glyph unicode="&#x2002;" horiz-adv-x="984" />
<glyph unicode="&#x2003;" horiz-adv-x="1969" />
<glyph unicode="&#x2004;" horiz-adv-x="656" />
<glyph unicode="&#x2005;" horiz-adv-x="492" />
<glyph unicode="&#x2006;" horiz-adv-x="328" />
<glyph unicode="&#x2007;" horiz-adv-x="328" />
<glyph unicode="&#x2008;" horiz-adv-x="246" />
<glyph unicode="&#x2009;" horiz-adv-x="393" />
<glyph unicode="&#x200a;" horiz-adv-x="109" />
<glyph unicode="&#x2010;" horiz-adv-x="737" d="M94 496v172h551v-172h-551z" />
<glyph unicode="&#x2011;" horiz-adv-x="737" d="M94 496v172h551v-172h-551z" />
<glyph unicode="&#x2012;" horiz-adv-x="737" d="M94 496v172h551v-172h-551z" />
<glyph unicode="&#x2013;" horiz-adv-x="1024" d="M0 485v162h1024v-162h-1024z" />
<glyph unicode="&#x2014;" horiz-adv-x="2048" d="M0 485v162h2048v-162h-2048z" />
<glyph unicode="&#x2018;" horiz-adv-x="606" d="M113 1057l249 499l112 -53l-191 -514z" />
<glyph unicode="&#x2019;" horiz-adv-x="606" d="M92 995l184 570l200 -76l-260 -537z" />
<glyph unicode="&#x201c;" horiz-adv-x="1065" d="M129 1057l250 499l131 -63l-191 -514zM555 1057l250 499l131 -63l-191 -514z" />
<glyph unicode="&#x201d;" horiz-adv-x="1028" d="M92 1042l191 514l190 -77l-250 -500zM518 1042l191 514l190 -77l-250 -500z" />
<glyph unicode="&#x201e;" horiz-adv-x="1138" d="M20 -287l185 570l199 -76l-260 -537zM589 -287l185 570l199 -76l-260 -537z" />
<glyph unicode="&#x2022;" horiz-adv-x="811" d="M154 780q0 52 19.5 98t53.5 80.5t80 54t99 19.5q52 0 98 -19.5t80 -53.5t53.5 -80t19.5 -99t-19.5 -99t-53.5 -80t-80 -53.5t-98 -19.5q-53 0 -99 19.5t-80 53.5t-53.5 80t-19.5 99z" />
<glyph unicode="&#x2026;" horiz-adv-x="2048" d="M205 123q0 30 11.5 56.5t32 47t47 32t56.5 11.5q31 0 58 -11.5t47.5 -32t32.5 -47t12 -56.5t-12 -57t-32.5 -47t-47.5 -32t-58 -12q-30 0 -56.5 12t-47 32t-32 47t-11.5 57zM877 123q0 30 11.5 56.5t32 47t47 32t56.5 11.5q31 0 58 -11.5t47.5 -32t32.5 -47t12 -56.5 t-12 -57t-32.5 -47t-47.5 -32t-58 -12q-30 0 -56.5 12t-47 32t-32 47t-11.5 57zM1548 123q0 30 12 56.5t32 47t47 32t57 11.5q31 0 58 -11.5t47 -32t32 -47t12 -56.5t-12 -57t-32 -47t-47 -32t-58 -12q-30 0 -57 12t-47 32t-32 47t-12 57z" />
<glyph unicode="&#x202f;" horiz-adv-x="393" />
<glyph unicode="&#x2039;" horiz-adv-x="616" d="M102 565l56 99l164 294h192l-229 -393l229 -393h-192z" />
<glyph unicode="&#x203a;" horiz-adv-x="616" d="M102 172l230 393l-230 393h193l164 -294l55 -99l-219 -393h-193z" />
<glyph unicode="&#x205f;" horiz-adv-x="492" />
<glyph unicode="&#xe000;" horiz-adv-x="1035" d="M0 0v1035h1035v-1035h-1035z" />
</font>
</defs>
</svg>
